<?xml version="1.0" encoding="UTF-8" standalone="no"?>
<svg
   xmlns:dc="http://purl.org/dc/elements/1.1/"
   xmlns:cc="http://creativecommons.org/ns#"
   xmlns:rdf="http://www.w3.org/1999/02/22-rdf-syntax-ns#"
   xmlns:svg="http://www.w3.org/2000/svg"
   xmlns="http://www.w3.org/2000/svg"
   xmlns:sodipodi="http://sodipodi.sourceforge.net/DTD/sodipodi-0.dtd"
   xmlns:inkscape="http://www.inkscape.org/namespaces/inkscape"
   width="67.043121mm"
   height="16.401442mm"
   viewBox="0 0 67.043123 16.401441"
   version="1.1"
   id="svg120"
   inkscape:version="1.0.2-2 (e86c870879, 2021-01-15)"
   sodipodi:docname="zvezda.svg">
  <defs
     id="defs114" />
  <sodipodi:namedview
     id="base"
     pagecolor="#ffffff"
     bordercolor="#666666"
     borderopacity="1.0"
     inkscape:pageopacity="0.0"
     inkscape:pageshadow="2"
     inkscape:zoom="0.35"
     inkscape:cx="-230.44721"
     inkscape:cy="416.70914"
     inkscape:document-units="mm"
     inkscape:current-layer="layer1"
     inkscape:document-rotation="0"
     showgrid="false"
     inkscape:window-width="1350"
     inkscape:window-height="1033"
     inkscape:window-x="58"
     inkscape:window-y="0"
     inkscape:window-maximized="0" />
  <metadata
     id="metadata117">
    <rdf:RDF>
      <cc:Work
         rdf:about="">
        <dc:format>image/svg+xml</dc:format>
        <dc:type
           rdf:resource="http://purl.org/dc/dcmitype/StillImage" />
        <dc:title></dc:title>
      </cc:Work>
    </rdf:RDF>
  </metadata>
  <g
     inkscape:label="Layer 1"
     inkscape:groupmode="layer"
     id="layer1"
     transform="translate(-166.80582,-37.912374)">
    <g
       id="Layer1000"
       transform="matrix(0,0.26458333,-0.26458333,0,329.42215,-24.653487)">
      <path
         d="m 248.1326,494.5218 h 38.5931 c -0.2639,0.2294 -0.6852,0.3757 -0.9635,1.0863 -0.2968,0.7577 -0.1675,5.1216 -0.1675,6.1234 0,2.8038 0,5.6076 0,8.4114 l -4.6452,-1.9283 c -3.0418,-1.3137 -6.3113,-2.604 -9.3909,-3.8976 l -9.3799,-3.9086 c -2.6372,-1.1388 -5.6201,-2.2783 -8.1812,-3.4108 -0.5613,-0.2483 -5.6457,-2.2854 -5.8649,-2.4758 z m 47.7042,-2.1045 c -1.0298,0.1046 -2.5186,0.0193 -3.5978,0.0193 h -24.8098 c -1.2527,0 -27.8219,0.1058 -28.3141,-0.0537 0,-4.6579 -0.0187,-9.3195 0,-13.9769 0.0182,-4.5513 1.27,-8.1203 3.6996,-10.196 2.7479,-2.3476 6.0187,-3.1636 10.7605,-3.1632 h 27.8492 c 6.4746,-8e-4 11.4187,1.7788 13.5119,7.4101 0.6493,1.7469 0.8981,3.9226 0.9005,6.0197 0.006,4.6468 0,9.2939 0,13.9407 z m -0.0299,57.8367 c -1.4414,0.1365 -3.5396,0.0151 -5.0523,0.0151 h -50.7507 c -1.0617,0.003 -0.8888,0.3316 -0.8888,-1.6038 v -22.6687 c 0.4208,-0.1245 7.0973,-0.0396 8.1165,-0.0383 l -4e-4,15.3529 15.7765,0.0173 0.0174,-12.2277 8.0998,-0.002 2e-4,12.2092 16.5911,0.0414 v -15.397 c 1.3926,-0.0186 7.0974,-0.0612 8.1209,0.0129 z m -48.5753,61.4765 c -1.0054,0 -7.7259,0.0633 -8.1165,-0.0155 v -25.2156 c 0.4292,-0.136 7.7429,-0.1164 8.1299,0.0185 1.0735,0.3744 4.5075,1.9005 5.7874,2.4139 5.7314,2.2989 11.6308,4.9137 17.3681,7.2301 4.7924,1.9349 9.6644,4.059 14.4763,6.0237 0.9682,0.3954 1.8926,0.83 2.8391,1.1783 l 3e-4,-16.9173 8.1208,0.0196 -0.0197,26.0704 c -0.851,0.0801 -7.6749,0.0977 -8.092,-0.054 -0.9372,-0.341 -1.9475,-0.8167 -2.8969,-1.2048 l -37.5968,-15.6786 z m -8.1159,-90.0969 -6e-4,-24.2138 c -5e-4,-1.0471 -0.117,-1.0339 0.3136,-1.0494 1.4486,-0.0524 4.0682,0.008 5.6645,0.008 1.1839,0 1.6801,-0.1237 2.5619,0.2477 l 24.0474,10.0188 c 3.933,1.6299 8.1165,3.4385 12.0312,5.0056 l 3.9815,1.6452 0.0245,-16.9173 8.0969,0.0156 -0.0314,26.0794 c -0.787,0.0742 -7.7222,0.0742 -8.0724,-0.0501 -0.9694,-0.3438 -1.9314,-0.8219 -2.8931,-1.2066 -0.9981,-0.3994 -1.9028,-0.8099 -2.8911,-1.2066 -1.9532,-0.7842 -3.8372,-1.6029 -5.7884,-2.4106 l -17.3673,-7.2306 c -0.8143,-0.333 -10.8263,-4.5708 -11.561,-4.7898 l -3e-4,16.0859 z m 56.6982,53.084 c -2.3354,0.4271 -4.7441,0.7337 -7.097,1.1016 l -46.1095,7.1141 c -0.6196,0.0937 -3.0607,0.5488 -3.4923,0.4857 l -0.003,-8.9553 46.0062,-6.7845 c -0.3061,-0.1549 -10.2461,-1.5456 -11.5056,-1.7335 l -31.6715,-4.6576 c -0.7313,-0.1067 -2.1942,-0.2424 -2.8258,-0.4412 l -8e-4,-8.1266 c 0.4948,-0.0669 27.9355,4.2631 28.3468,4.327 0.5223,0.0812 27.7946,4.2113 28.3288,4.3879 0.0825,0.2349 0.1395,12.4401 0.0232,13.2824 z m -56.7287,39.1178 h 8.2699 c 1.1961,0 1.987,-1.116 1.9808,-2.2601 l -0.002,-12.7954 c 0.6255,0.1457 21.0771,8.8202 23.8603,9.9264 l 9.5822,3.9888 c 0.5881,0.2409 4.3313,1.9178 4.8679,1.9178 h 8.4113 c 0.59,0 1.183,-0.4453 1.457,-0.8048 0.3333,-0.4378 0.4514,-1.0703 0.4514,-1.8104 v -25.022 c 0,-1.2751 -0.6131,-2.6153 -1.9791,-2.6153 h -8.3406 c -1.3808,0 -2.0575,1.112 -2.0515,2.4016 l 0.002,13.4315 c -0.3411,-0.0794 -0.8161,-0.3201 -1.1607,-0.4649 -0.4367,-0.1835 -0.7647,-0.3199 -1.2025,-0.494 l -7.1808,-2.9975 c -3.1497,-1.3927 -6.4002,-2.5742 -9.5386,-3.9619 -3.1619,-1.3982 -6.3481,-2.6048 -9.5242,-3.9763 -0.8166,-0.3527 -1.5745,-0.6605 -2.403,-0.9898 l -4.7857,-2 c -0.8137,-0.3417 -1.5758,-0.7464 -2.4441,-0.9487 l 3.2106,-0.5356 c 1.1361,-0.1748 2.2443,-0.3263 3.313,-0.5039 4.4086,-0.7326 8.729,-1.3465 13.1672,-2.0297 1.1201,-0.1724 2.2429,-0.3606 3.3018,-0.5151 1.1319,-0.1651 2.2045,-0.3631 3.3054,-0.5115 4.3761,-0.5898 8.7884,-1.3948 13.1638,-2.0331 1.1076,-0.1616 2.2073,-0.321 3.2516,-0.4945 1.1098,-0.1845 2.2204,-0.3655 3.3052,-0.5118 0.7014,-0.0945 2.7127,-0.3248 3.249,-0.5679 0.9368,-0.4242 1.3416,-1.1226 1.3416,-2.4753 v -12.2281 c 0,-2.808 -1.9526,-2.5936 -4.1099,-2.9585 -6.0998,-1.0319 -12.2475,-1.7963 -18.3673,-2.8376 -0.9982,-0.1699 -2.0946,-0.3334 -3.0599,-0.4743 l -12.2474,-1.8893 c -1.0518,-0.1694 -2.0389,-0.329 -3.0666,-0.4676 -1.1287,-0.1521 -5.2083,-0.9151 -6.1532,-0.9151 l 43.3995,-0.0706 c 0.9477,0 1.9292,0.1392 2.7172,-0.393 0.2846,-0.1922 0.5523,-0.5464 0.686,-0.8689 0.1331,-0.3208 0.2016,-0.8739 0.2016,-1.3534 v -23.2549 c 0,-1.9284 -0.7881,-1.843 -0.9189,-2.3325 0.3402,-0.0909 0.5698,-0.5424 0.7083,-0.8467 0.1493,-0.3279 0.2106,-0.858 0.2106,-1.3445 v -25.0219 c 0,-0.6669 -0.0908,-1.2235 -0.351,-1.6281 -0.382,-0.5942 -0.6347,-0.5446 -1.0626,-0.9165 0.4539,-0.1058 0.8383,-0.4675 1.0586,-0.8499 0.262,-0.4546 0.355,-0.9132 0.355,-1.6241 v -12.0161 c 0,-4.4361 -0.3251,-8.308 -2.9278,-11.633 -0.1631,-0.2083 -0.3045,-0.4019 -0.4816,-0.5787 l -0.4935,-0.5667 c -0.1882,-0.2012 -0.33,-0.2523 -0.5335,-0.456 -1.2211,-1.2226 -3.023,-2.1313 -4.6722,-2.6789 -2.1356,-0.7092 -4.499,-1.0508 -7.3605,-1.0508 h -28.1321 c -7.1729,0 -12.5091,2.2425 -15.0754,8.1794 -0.7083,1.6388 -1.2524,4.2019 -1.2524,6.5227 v 14.985 c 0,1.0877 0.7849,1.3527 1.343,1.8377 -0.6298,0.1468 -1.343,0.988 -1.343,1.7671 v 25.5167 c 0,1.1214 0.9879,2.0499 2.1205,2.0499 h 8.0579 c 1.2128,0 2.116,-0.8976 2.1238,-2.1173 l -0.003,-12.9383 c 0.6482,0.151 3.9331,1.6294 4.6543,1.9193 l 11.5828,4.8157 c 3.8922,1.5386 7.7539,3.2639 11.6215,4.8477 2.3164,0.9487 4.6574,1.8591 6.9417,2.8833 0.3931,0.1762 0.7449,0.3191 1.1468,0.4789 0.3169,0.126 0.9374,0.4395 1.2323,0.4641 v 0.1413 c -0.3007,0.0803 -0.511,0.4163 -0.6612,0.6817 -0.1593,0.2816 -0.2577,0.7383 -0.2577,1.1561 v 13.1471 H 273.2252 V 529.086 c 0,-0.963 -0.8394,-2.0498 -1.8378,-2.0498 h -8.6233 c -0.8916,0 -1.8378,1.0024 -1.8378,1.9085 v 10.3197 h -11.5921 v -13.3591 c 0,-1.0873 -0.9587,-2.0499 -2.0498,-2.0499 h -8.1992 c -1.01,0 -2.0499,0.8733 -2.0499,1.9085 v 24.6685 c 0,0.3669 0.2224,0.8126 0.3535,1.0603 -0.1611,0.2404 -0.3535,0.5912 -0.3535,0.9895 v 8.482 c 0,0.7399 0.4189,1.2889 0.8661,1.6079 0.592,0.4223 1.1473,0.4064 2.0114,0.5332 1.4153,0.2076 2.884,0.4272 4.3723,0.6462 l 25.3231,3.7278 c 0.3607,0.0509 0.7088,0.1292 1.143,0.1292 -0.1073,0.0746 0.0993,0.002 -0.1863,0.0963 -0.1575,0.0524 -0.0634,0.0203 -0.2338,0.049 -0.2192,0.0369 -0.3078,0.0442 -0.5571,0.079 l -7.7662,1.1399 c -2.8862,0.4174 -5.9261,0.8787 -8.8064,1.3013 -2.9826,0.4375 -5.8826,0.7937 -8.815,1.2927 -1.4602,0.2486 -2.9485,0.4386 -4.4413,0.6479 -0.7106,0.0996 -1.5055,0.169 -2.022,0.5226 -0.4472,0.3061 -0.8878,0.9362 -0.8878,1.6569 v 9.2596 c 0,0.6893 0.4421,0.8805 0.5655,1.3429 -0.2296,0.3429 -0.5655,0.6823 -0.5655,1.2723 v 25.6581 c 0,0.9837 1.033,1.9084 2.0499,1.9084 z"
         style="fill:#ffffff;fill-rule:evenodd"
         id="path2" />
      <path
         d="m 287.7168,483.5027 -40.4857,-1e-4 c 0,-5.5406 -0.9671,-9.3863 5.2819,-9.5378 4.9142,-0.1191 9.9846,-0.003 14.9162,-0.003 4.953,0 9.9703,-0.0794 14.9152,0.001 6.3995,0.1047 5.3724,4.0898 5.3724,9.5395 z m 8.12,8.9146 c 0,-4.6468 0.006,-9.2939 0,-13.9407 -0.002,-2.0971 -0.2512,-4.2728 -0.9005,-6.0197 -2.0932,-5.6313 -7.0373,-7.4109 -13.5119,-7.4101 h -27.8492 c -4.7418,-4e-4 -8.0126,0.8156 -10.7605,3.1632 -2.4296,2.0757 -3.6814,5.6447 -3.6996,10.196 -0.0187,4.6574 0,9.319 0,13.9769 0.4922,0.1595 27.0614,0.0537 28.3141,0.0537 h 24.8098 c 1.0792,0 2.568,0.0853 3.5978,-0.0193 z"
         style="fill:#1b1918;fill-rule:evenodd"
         id="path4" />
      <g
         id="Layer1001">
        <path
           d="m 288.0871,443.445 0.003,6.5309 9.5003,1.4403 0.5481,1.3332 c 0.5292,1.2872 0.2437,7.349 0.2437,9.1291 v 2.6664 l -2.6635,-0.1231 c -1.1369,-0.0523 -2.5598,-0.3436 -3.6963,-0.5292 -1.2484,-0.204 -2.4954,-0.4212 -3.7443,-0.6208 l -42.5318,-6.8052 c -1.2339,-0.1973 -2.4721,-0.3776 -3.7069,-0.5724 -0.9887,-0.1556 -2.9829,-0.3838 -3.8727,-0.7415 l -1.5969,-0.6416 -10e-4,-14.05 c -0.0203,-1.9056 0.6659,-3.0062 2.6781,-3.2882 0.3242,-0.0456 0.647,-0.0984 0.9693,-0.1532 7.0586,-1.1917 14.1469,-2.2012 21.2051,-3.3929 8.5067,-1.436 17.0353,-2.7386 25.5556,-4.0879 l 11.1766,-1.7703 0.2084,2.7551 c 0.1168,1.5479 0.0567,3.3319 0.0543,4.8943 -10e-4,1.0517 0.0983,4.1252 -0.191,5.0533 l -0.4754,1.5227 z m -12.8273,4.6219 0.0102,-2.633 -8.8217,1.3168 8.2062,1.229 c 0.2016,0.03 0.4037,0.0591 0.6053,0.0872 z"
           style="fill:#ffffff;fill-rule:evenodd"
           id="path6" />
      </g>
      <path
         d="m 277.795,451.0225 c -1.1085,-0.2142 -2.3816,-0.3533 -3.5175,-0.5248 l -23.9772,-3.5904 c -0.24,-0.036 -0.6675,-0.0606 -0.8479,-0.1941 l 28.3757,-4.2354 z m 18.0411,10.8561 c 0,-1.1034 0.129,-7.7188 -0.0526,-8.161 l -10.2389,-1.5519 -0.005,-10.9125 10.2541,-1.5404 c 0.0992,-0.3184 0.0929,-8.1443 0.0286,-8.9971 l -8.4474,1.3381 c -8.4451,1.3374 -17.1381,2.6671 -25.5303,4.0839 -7.0599,1.1918 -14.1929,2.209 -21.205,3.3928 -0.3533,0.0597 -0.681,0.1136 -1.0398,0.1639 -0.6234,0.0873 -0.4927,0.0645 -0.4851,0.753 l 9e-4,12.3427 c 0.434,0.1746 6.0737,1.0105 7.0323,1.1622 l 42.5318,6.805 c 1.2557,0.1998 6.3665,1.0849 7.1559,1.1213 z"
         style="fill:#1b1918;fill-rule:evenodd"
         id="path9" />
      <path
         d="m 295.8139,574.7176 c 0.1163,-0.8423 0.0593,-13.0475 -0.0232,-13.2824 -0.5342,-0.1766 -27.8065,-4.3067 -28.3288,-4.3879 -0.4113,-0.0639 -27.852,-4.3939 -28.3468,-4.327 l 8e-4,8.1266 c 0.6316,0.1988 2.0945,0.3345 2.8258,0.4412 l 31.6715,4.6576 c 1.2595,0.1879 11.1995,1.5786 11.5056,1.7335 l -46.0062,6.7845 0.003,8.9553 c 0.4316,0.0631 2.8727,-0.392 3.4923,-0.4857 l 46.1095,-7.1141 c 2.3529,-0.3679 4.7616,-0.6745 7.097,-1.1016 z"
         style="fill:#1b1918;fill-rule:evenodd"
         id="path11" />
      <path
         d="m 295.8069,550.254 0.0302,-24.2885 c -1.0235,-0.0741 -6.7283,-0.0315 -8.1209,-0.0129 v 15.397 l -16.5911,-0.0414 -2e-4,-12.2092 -8.0998,0.002 -0.0174,12.2277 -15.7765,-0.0173 4e-4,-15.3529 c -1.0192,-10e-4 -7.6957,-0.0862 -8.1165,0.0383 v 22.6687 c 0,1.9354 -0.1729,1.6069 0.8888,1.6038 h 50.7507 c 1.5127,0 3.6109,0.1214 5.0523,-0.0151 z"
         style="fill:#1b1918;fill-rule:evenodd"
         id="path13" />
      <path
         d="m 247.2316,611.7305 v -16.1313 l 37.5968,15.6786 c 0.9494,0.3881 1.9597,0.8638 2.8969,1.2048 0.4171,0.1517 7.241,0.1341 8.092,0.054 l 0.0197,-26.0704 -8.1208,-0.0196 -3e-4,16.9173 c -0.9465,-0.3483 -1.8709,-0.7829 -2.8391,-1.1783 -4.8119,-1.9647 -9.6839,-4.0888 -14.4763,-6.0237 -5.7373,-2.3164 -11.6367,-4.9312 -17.3681,-7.2301 -1.2799,-0.5134 -4.7139,-2.0395 -5.7874,-2.4139 -0.387,-0.1349 -7.7007,-0.1545 -8.1299,-0.0185 v 25.2156 c 0.3906,0.0788 7.1111,0.0155 8.1165,0.0155 z"
         style="fill:#1b1918;fill-rule:evenodd"
         id="path15" />
      <path
         d="m 247.2316,521.6654 3e-4,-16.0859 c 0.7347,0.219 10.7467,4.4568 11.561,4.7898 l 17.3673,7.2306 c 1.9512,0.8077 3.8352,1.6264 5.7884,2.4106 0.9883,0.3967 1.893,0.8072 2.8911,1.2066 0.9617,0.3847 1.9237,0.8628 2.8931,1.2066 0.3502,0.1243 7.2854,0.1243 8.0724,0.0501 l 0.0314,-26.0794 -8.0969,-0.0156 -0.0245,16.9173 -3.9815,-1.6452 c -3.9147,-1.5671 -8.0982,-3.3757 -12.0312,-5.0056 l -24.0474,-10.0188 c -0.8818,-0.3714 -1.378,-0.2477 -2.5619,-0.2477 -1.5963,0 -4.2159,-0.0608 -5.6645,-0.008 -0.4306,0.0155 -0.3141,0.002 -0.3136,1.0494 l 6e-4,24.2138 z"
         style="fill:#1b1918;fill-rule:evenodd"
         id="path17" />
      <path
         d="m 261.9963,401.1491 c 0.003,-1.1942 -0.6192,-1.4488 -1.5791,-1.7532 -4.1696,-1.3223 -8.4126,-2.7795 -12.5562,-4.0547 -1.6413,-0.5051 -3.4016,-1.1816 -5.0324,-1.6234 0.2518,-0.175 10.7024,-3.4987 11.9347,-3.8915 1.987,-0.6333 4.006,-1.2635 5.988,-1.9286 1.3862,-0.4653 1.2456,-1.1972 1.2427,-2.7231 l -0.0147,-17.7995 c 0.2169,0.1548 1.1792,1.5845 1.4147,1.9026 l 4.186,5.7799 c 0.9427,1.323 1.8888,2.5589 2.7913,3.8521 0.4675,0.6699 0.9228,1.2569 1.3959,1.9258 1.6408,2.3195 1.6706,2.936 3.7047,2.2741 l 12.5188,-4.0917 c 1.08,-0.3511 4.0934,-1.398 4.9665,-1.6093 l -10.241,14.0761 c -1.1542,1.6255 -1.8023,1.9702 -0.6872,3.4747 l 5.0958,6.9918 c 1.0099,1.3231 1.9282,2.6926 2.919,4.009 l 2.2096,3.0197 c 0.2084,0.2934 0.5701,0.7299 0.7019,1.0062 l -5.0279,-1.6273 c -3.9472,-1.3587 -8.4245,-2.7657 -12.4627,-4.0773 -1.074,-0.3488 -1.7533,-0.4494 -2.3602,0.4225 -0.9169,1.3171 -1.8741,2.5432 -2.7897,3.8539 l -4.1504,5.7467 c -0.4792,0.6472 -0.9263,1.2655 -1.3946,1.9277 -0.2667,0.3772 -2.4995,3.5309 -2.81,3.7892 z m -25.5264,-7.3096 v -0.3028 c 0.0441,-0.4398 0.285,-0.8725 0.7782,-1.1516 0.3031,-0.1717 3.8178,-1.262 4.355,-1.4411 0.5201,-0.1735 0.9945,-0.3078 1.502,-0.4772 l 4.3302,-1.3951 c 0.9821,-0.3295 1.932,-0.6215 2.9325,-0.9551 l 7.3158,-2.3678 c 0.4668,-0.157 1.3343,-0.2893 1.3343,-0.5742 V 372.805 c 0,-3.3161 -0.1053,-6.5799 -0.0737,-9.8279 0.005,-0.5507 0.1218,-0.9208 0.3828,-1.2429 0.4692,-0.5792 1.3661,-0.665 1.9848,-0.2706 0.4225,0.2692 2.2202,2.9358 2.7051,3.5856 0.1581,0.2118 0.2497,0.3602 0.4132,0.5764 l 8.7544,12.0973 c 0.3141,0.4344 0.593,0.8109 0.8894,1.231 l 0.8477,1.2021 19.659,-6.4232 c 1.0898,-0.3631 2.2538,-0.9467 3.0309,-0.5043 0.3788,0.2157 0.7769,0.6136 0.7769,1.2022 0,0.8095 -0.2483,0.9707 -0.6969,1.565 -0.2986,0.3957 -0.5785,0.7925 -0.8585,1.1912 -0.1471,0.2093 -0.2927,0.3766 -0.4521,0.6082 l -3.011,4.128 c -1.9818,2.6335 -4.004,5.5845 -5.9874,8.2199 -0.3074,0.4085 -0.5727,0.7892 -0.8689,1.1811 l -0.8622,1.1875 c -0.2711,0.3986 -0.5737,0.756 -0.8342,1.145 0.0693,0.2595 0.6347,0.9609 0.8288,1.221 l 12.4906,17.1257 c 0.1477,0.2128 0.2283,0.4451 0.2518,0.6783 v 0.2943 c -0.0724,0.7303 -0.6744,1.3909 -1.4843,1.3909 -0.2845,0 -2.4115,-0.7216 -2.8184,-0.8571 L 277.6342,408.12 c -0.4869,-0.1624 -0.9076,-0.2774 -1.3964,-0.4414 -0.4111,-0.1379 -0.9757,-0.2874 -1.3162,-0.4508 l -3.4841,4.8565 c -1.9971,2.652 -4.1327,5.8383 -6.1388,8.4927 l -2.6163,3.6039 c -0.301,0.4096 -0.5497,0.7791 -0.8572,1.1925 -0.2935,0.3945 -0.5961,0.7975 -1.2524,0.7975 -1.1531,0 -1.6281,-0.7212 -1.6281,-1.8353 0,-1.0609 0.002,-2.1221 0.002,-3.1831 0,-1.1153 0.0707,-1.9845 0.0707,-3.1102 0,-5.3247 0,-10.6495 0,-15.9744 l -18.9698,-6.1227 c -0.6398,-0.2136 -2.3726,-0.71 -2.8509,-0.9661 -0.4136,-0.2216 -0.68,-0.6647 -0.7273,-1.1396 z"
         style="fill:#000000;fill-rule:evenodd"
         id="path19" />
      <path
         d="m 271.602,392.8904 c -0.14,-1.7657 -0.6049,-1.1676 -0.6029,-2.2007 10e-4,-0.7129 0.0672,-2.0334 0.884,-1.7873 0.1693,0.1111 0.174,0.1362 0.2668,0.3886 0.0484,0.1318 0.0923,0.2876 0.1273,0.4391 0.2019,0.8727 0.3059,2.2512 0.3359,3.1366 0.4577,0.1821 1.0446,0.2257 1.603,0.224 -0.1264,-0.6341 -0.4987,-1.1522 -0.5631,-1.8396 -0.062,-0.6595 0.2719,-1.3187 0.7738,-1.5553 0.762,0.4575 0.7276,2.3121 0.8051,3.3934 l 2.2168,-0.0141 c -0.0154,-0.7985 -0.1404,-1.4783 -0.186,-2.2438 -0.0452,-0.7556 0.0453,-1.5806 -0.2064,-2.2769 -0.6064,-1.678 0.4369,-3.331 1.3487,-3.3007 0.4357,0.526 0.3377,1.2329 0.2302,1.9512 -0.1834,1.2239 -0.1887,5.7993 -0.0777,6.9106 0.1436,1.4381 0.4239,2.7303 0.7454,4.0696 0.2484,1.0351 1.0199,3.3429 -0.4231,3.5313 -0.1902,-0.4174 -0.2057,-1.3321 -0.2876,-1.8328 -0.0967,-0.5926 -0.237,-1.1833 -0.3537,-1.7689 -0.2322,-1.1661 -0.5275,-2.3459 -0.5867,-3.6084 l -2.2085,0.0244 c 0.1498,0.6344 0.2645,1.1518 0.4383,1.7731 0.2141,0.7651 -0.1883,1.7558 -0.4653,1.7375 -0.3961,-0.189 -0.4451,-1.1325 -0.5211,-1.6721 -0.0922,-0.6552 -0.2353,-1.1746 -0.2649,-1.8665 l -1.7968,0.0335 c 0.2414,0.5204 0.3053,1.2803 0.4297,1.9124 0.0569,0.2888 0.2012,0.7139 0.2324,0.9784 0.0488,0.4129 -0.1999,0.4366 -0.2511,0.8947 0.626,0.6181 0.5543,0.2966 1.3059,1.3615 0.3323,0.4709 0.7494,1.115 1.0187,1.6141 -0.4613,-0.1574 -1.0187,-0.5928 -1.3621,-0.848 -0.4109,-0.3052 -0.7812,-0.5924 -1.2397,-0.8808 -2.1188,-1.3328 -1.9123,-0.8965 -3.1456,-0.8373 0.0663,-0.6387 0.4739,-1.4655 0.9265,-1.6845 0.789,-0.3816 1.4419,0.4008 1.8434,0.6272 -0.0252,-1.0162 -0.5274,-1.99 -0.5801,-3.1581 -1.0048,-0.0584 -1.6885,0.1152 -2.6178,0.1843 0.0273,0.8548 0.153,0.6715 0.3725,1.2183 -0.4783,0.8501 -1.5657,1.0742 -2.7572,1.3473 -1.652,0.3785 -2.6098,0.9495 -3.0506,1.0509 -0.0453,-2.0104 0.3598,-1.7791 -0.1134,-4.3937 -0.1171,-0.6472 -0.2305,-1.3255 -0.3963,-1.9417 -0.1743,-0.6475 -0.4737,-1.1363 -0.1481,-1.8167 0.2589,-0.5411 0.6566,-1.3011 1.1503,-1.0322 0.6197,0.3376 0.8694,0.4756 1.6584,0.6817 0.7396,0.1933 2.7814,0.6702 3.264,1.298 -0.3152,1.1513 -0.3753,-0.139 -0.3842,2.5567 0.5457,-0.2909 0.5075,-0.4817 0.8431,-0.9631 z m -8.3382,6.1317 -0.0292,17.2545 c 0.2708,-0.2294 0.4591,-0.5542 0.6664,-0.8441 l 5.6716,-7.8278 c 0.4219,-0.5981 0.8341,-1.1856 1.2725,-1.768 0.3637,-0.4831 2.3696,-3.196 2.5007,-3.5083 l 16.4533,5.3509 c -0.1562,-0.3572 -0.9654,-1.382 -1.2484,-1.7812 -2.4483,-3.4546 -5.1533,-6.9752 -7.6011,-10.4237 l -1.2813,-1.7316 c 0.1233,-0.2873 8.5476,-11.8545 9.5136,-13.1099 0.1972,-0.2562 0.5013,-0.6447 0.6342,-0.897 l -16.4707,5.3608 c -0.1819,-0.4601 -10.0203,-13.9244 -10.0928,-13.9765 l 0.0148,17.2678 -16.4474,5.2955 z"
         style="fill:#e63c24;fill-rule:evenodd"
         id="path21" />
      <path
         d="m 285.5947,478.1233 v 3.2514 h -36.2605 v -2.8981 c 0,-2.0046 1.1406,-2.4031 3.1101,-2.4031 h 30.1111 c 0.7443,0 1.6404,0.1368 2.158,0.3865 0.5193,0.2506 0.8813,0.9297 0.8813,1.6633 z m 2.1221,5.3794 c 0,-5.4497 1.0271,-9.4348 -5.3724,-9.5395 -4.9449,-0.0809 -9.9622,-10e-4 -14.9152,-10e-4 -4.9316,0 -10.002,-0.116 -14.9162,0.003 -6.249,0.1515 -5.2819,3.9972 -5.2819,9.5378 z"
         style="fill:#fdfdfd;fill-rule:evenodd"
         id="path23" />
      <path
         d="m 246.82,393.6835 16.4474,-5.2955 -0.0148,-17.2678 c 0.0725,0.0521 9.9109,13.5164 10.0928,13.9765 l 16.4707,-5.3608 c -0.1329,0.2523 -0.437,0.6408 -0.6342,0.897 -0.966,1.2554 -9.3903,12.8226 -9.5136,13.1099 l 1.2813,1.7316 c 2.4478,3.4485 5.1528,6.9691 7.6011,10.4237 0.283,0.3992 1.0922,1.424 1.2484,1.7812 l -16.4533,-5.3509 c -0.1311,0.3123 -2.137,3.0252 -2.5007,3.5083 -0.4384,0.5824 -0.8506,1.1699 -1.2725,1.768 l -5.6716,7.8278 c -0.2073,0.2899 -0.3956,0.6147 -0.6664,0.8441 l 0.0292,-17.2545 z m 15.5203,6.0518 c 0,6.5126 -0.0706,12.8046 -0.0706,19.2962 0.3063,-0.08 0.3726,-0.1854 0.5266,-0.4031 l 3.2049,-4.4316 c 0.1385,-0.2043 0.2071,-0.2789 0.3533,-0.4948 0.1276,-0.1882 0.2179,-0.301 0.3575,-0.4861 1.468,-1.9456 2.7996,-3.9579 4.2704,-5.908 l 2.4954,-3.4429 c 0.1227,-0.1598 0.2911,-0.3629 0.2426,-0.4544 l 5.7167,1.8817 c 1.4058,0.4687 12.036,4.0354 12.7308,4.1263 -0.064,-0.4551 -0.3725,-0.7479 -0.646,-1.1105 l -2.1511,-2.9378 c -0.2146,-0.2859 -0.442,-0.6161 -0.6869,-0.9395 -0.1438,-0.1899 -0.2164,-0.3118 -0.3523,-0.4958 -0.1367,-0.1852 -0.2292,-0.2909 -0.3623,-0.4819 -0.1459,-0.2091 -0.2019,-0.2933 -0.3554,-0.4964 -1.4438,-1.9098 -2.8229,-3.9278 -4.2607,-5.8474 -0.8582,-1.1457 -1.7191,-2.2524 -2.4946,-3.4524 l -0.0824,0.058 c 0.0563,0.1022 2.8668,-3.8282 2.8795,-3.8452 0.2681,-0.3564 0.457,-0.6253 0.7177,-0.9783 l 6.4093,-8.7915 c 0.1239,-0.1823 0.2499,-0.3496 0.3554,-0.4892 0.1377,-0.1823 0.2449,-0.3495 0.3529,-0.4968 0.4078,-0.5567 0.6087,-0.6632 0.6769,-1.1487 -1.5965,0.4039 -3.0683,1.0103 -4.6186,1.4933 -0.1723,0.0537 -0.3387,0.09 -0.5499,0.1582 l -4.0464,1.3262 c -1.485,0.496 -3.0056,0.9786 -4.5237,1.4843 -0.3638,0.1212 -0.7092,0.2366 -1.1127,0.3711 -0.5771,0.1924 -3.0479,1.0722 -3.5256,1.1043 -0.0115,0.1469 -0.0166,0.0382 -0.0809,-0.042 -0.7439,-0.9285 -2.1071,-2.9018 -2.8477,-3.9458 -0.0862,-0.1214 -0.1131,-0.146 -0.1817,-0.2414 l -6.7666,-9.3518 c -0.1374,-0.1821 -0.2205,-0.3202 -0.3523,-0.4961 l -0.5353,-0.7374 c -0.5045,-0.678 -0.247,-0.6025 -0.7568,-0.7358 0,6.4917 0.0706,12.7838 0.0706,19.2965 -0.3197,0.2035 -5.9507,1.936 -6.8475,2.2352 l -5.7255,1.8378 c -0.4024,0.1351 -0.7626,0.2538 -1.1664,0.3896 -0.7854,0.2642 -3.8163,1.1352 -4.3316,1.3822 -0.3557,0.1704 -0.1464,0.017 -0.3066,0.304 0.7175,0.2763 1.5447,0.4907 2.324,0.7509 z"
         style="fill:#fefefe;fill-rule:evenodd"
         id="path25" />
      <path
         d="m 265.0259,396.3108 c -0.1169,-0.1992 -0.1201,-0.4368 -0.1481,-0.6736 -0.1732,-1.4656 -0.4422,-2.9142 -0.6964,-4.3492 l 4.0012,0.6216 c 0.0188,1.3171 0.3792,2.3423 0.4001,3.6113 l -1.4021,0.3634 c -0.0798,-1.4522 -0.4905,-2.4571 -0.6041,-3.7845 -2.0318,0.4111 -0.1876,1.7419 -0.2118,4.0425 z m -1.0675,2.0058 c 0.4408,-0.1014 1.3986,-0.6724 3.0506,-1.0509 1.1915,-0.2731 2.2789,-0.4972 2.7572,-1.3473 -0.2195,-0.5468 -0.3452,-0.3635 -0.3725,-1.2183 0.9293,-0.0691 1.613,-0.2427 2.6178,-0.1843 0.0527,1.1681 0.5549,2.1419 0.5801,3.1581 -0.4015,-0.2264 -1.0544,-1.0088 -1.8434,-0.6272 -0.4526,0.219 -0.8602,1.0458 -0.9265,1.6845 1.2333,-0.0592 1.0268,-0.4955 3.1456,0.8373 0.4585,0.2884 0.8288,0.5756 1.2397,0.8808 0.3434,0.2552 0.9008,0.6906 1.3621,0.848 -0.2693,-0.4991 -0.6864,-1.1432 -1.0187,-1.6141 -0.7516,-1.0649 -0.6799,-0.7434 -1.3059,-1.3615 0.0512,-0.4581 0.2999,-0.4818 0.2511,-0.8947 -0.0312,-0.2645 -0.1755,-0.6896 -0.2324,-0.9784 -0.1244,-0.6321 -0.1883,-1.392 -0.4297,-1.9124 l 1.7968,-0.0335 c 0.0296,0.6919 0.1727,1.2113 0.2649,1.8665 0.076,0.5396 0.125,1.4831 0.5211,1.6721 0.277,0.0183 0.6794,-0.9724 0.4653,-1.7375 -0.1738,-0.6213 -0.2885,-1.1387 -0.4383,-1.7731 l 2.2085,-0.0244 c 0.0592,1.2625 0.3545,2.4423 0.5867,3.6084 0.1167,0.5856 0.257,1.1763 0.3537,1.7689 0.0819,0.5007 0.0974,1.4154 0.2876,1.8328 1.443,-0.1884 0.6715,-2.4962 0.4231,-3.5313 -0.3215,-1.3393 -0.6018,-2.6315 -0.7454,-4.0696 -0.111,-1.1113 -0.1057,-5.6867 0.0777,-6.9106 0.1075,-0.7183 0.2055,-1.4252 -0.2302,-1.9512 -0.9118,-0.0303 -1.9551,1.6227 -1.3487,3.3007 0.2517,0.6963 0.1612,1.5213 0.2064,2.2769 0.0456,0.7655 0.1706,1.4453 0.186,2.2438 l -2.2168,0.0141 c -0.0775,-1.0813 -0.0431,-2.9359 -0.8051,-3.3934 -0.5019,0.2366 -0.8358,0.8958 -0.7738,1.5553 0.0644,0.6874 0.4367,1.2055 0.5631,1.8396 -0.5584,0.002 -1.1453,-0.0419 -1.603,-0.224 -0.03,-0.8854 -0.134,-2.2639 -0.3359,-3.1366 -0.035,-0.1515 -0.0789,-0.3073 -0.1273,-0.4391 -0.0928,-0.2524 -0.0975,-0.2775 -0.2668,-0.3886 -0.8168,-0.2461 -0.8826,1.0744 -0.884,1.7873 -0.002,1.0331 0.4629,0.435 0.6029,2.2007 l -1.7698,-0.1848 c -0.3356,0.4814 -0.2974,0.6722 -0.8431,0.9631 0.009,-2.6957 0.069,-1.4054 0.3842,-2.5567 -0.4826,-0.6278 -2.5244,-1.1047 -3.264,-1.298 -0.789,-0.2061 -1.0387,-0.3441 -1.6584,-0.6817 -0.4937,-0.2689 -0.8914,0.4911 -1.1503,1.0322 -0.3256,0.6804 -0.0262,1.1692 0.1481,1.8167 0.1658,0.6162 0.2792,1.2945 0.3963,1.9417 0.4732,2.6146 0.0681,2.3833 0.1134,4.3937 z"
         style="fill:#fdfdfd;fill-rule:evenodd"
         id="path27" />
      <path
         d="m 246.2867,394.5485 c -0.7793,-0.2602 -1.6065,-0.4746 -2.324,-0.7509 0.1602,-0.287 -0.0491,-0.1336 0.3066,-0.304 0.5153,-0.247 3.5462,-1.118 4.3316,-1.3822 0.4038,-0.1358 0.764,-0.2545 1.1664,-0.3896 l 5.7255,-1.8378 c 0.8968,-0.2992 6.5278,-2.0317 6.8475,-2.2352 0,-6.5127 -0.0706,-12.8048 -0.0706,-19.2965 0.5098,0.1333 0.2523,0.0578 0.7568,0.7358 l 0.5353,0.7374 c 0.1318,0.1759 0.2149,0.314 0.3523,0.4961 l 6.7666,9.3518 c 0.0686,0.0954 0.0955,0.12 0.1817,0.2414 0.7406,1.044 2.1038,3.0173 2.8477,3.9458 0.0643,0.0802 0.0694,0.1889 0.0809,0.042 0.4777,-0.0321 2.9485,-0.9119 3.5256,-1.1043 0.4035,-0.1345 0.7489,-0.2499 1.1127,-0.3711 1.5181,-0.5057 3.0387,-0.9883 4.5237,-1.4843 l 4.0464,-1.3262 c 0.2112,-0.0682 0.3776,-0.1045 0.5499,-0.1582 1.5503,-0.483 3.0221,-1.0894 4.6186,-1.4933 -0.0682,0.4855 -0.2691,0.592 -0.6769,1.1487 -0.108,0.1473 -0.2152,0.3145 -0.3529,0.4968 -0.1055,0.1396 -0.2315,0.3069 -0.3554,0.4892 l -6.4093,8.7915 c -0.2607,0.353 -0.4496,0.6219 -0.7177,0.9783 -0.0127,0.017 -2.8232,3.9474 -2.8795,3.8452 l 0.0824,-0.058 c 0.7755,1.2 1.6364,2.3067 2.4946,3.4524 1.4378,1.9196 2.8169,3.9376 4.2607,5.8474 0.1535,0.2031 0.2095,0.2873 0.3554,0.4964 0.1331,0.191 0.2256,0.2967 0.3623,0.4819 0.1359,0.184 0.2085,0.3059 0.3523,0.4958 0.2449,0.3234 0.4723,0.6536 0.6869,0.9395 l 2.1511,2.9378 c 0.2735,0.3626 0.582,0.6554 0.646,1.1105 -0.6948,-0.0909 -11.325,-3.6576 -12.7308,-4.1263 l -5.7167,-1.8817 c 0.0485,0.0915 -0.1199,0.2946 -0.2426,0.4544 l -2.4954,3.4429 c -1.4708,1.9501 -2.8024,3.9624 -4.2704,5.908 -0.1396,0.1851 -0.2299,0.2979 -0.3575,0.4861 -0.1462,0.2159 -0.2148,0.2905 -0.3533,0.4948 l -3.2049,4.4316 c -0.154,0.2177 -0.2203,0.3231 -0.5266,0.4031 0,-6.4916 0.0706,-12.7836 0.0706,-19.2962 z m 15.7096,6.6006 -0.0365,18.8724 c 0.3105,-0.2583 2.5433,-3.412 2.81,-3.7892 0.4683,-0.6622 0.9154,-1.2805 1.3946,-1.9277 l 4.1504,-5.7467 c 0.9156,-1.3107 1.8728,-2.5368 2.7897,-3.8539 0.6069,-0.8719 1.2862,-0.7713 2.3602,-0.4225 4.0382,1.3116 8.5155,2.7186 12.4627,4.0773 l 5.0279,1.6273 c -0.1318,-0.2763 -0.4935,-0.7128 -0.7019,-1.0062 l -2.2096,-3.0197 c -0.9908,-1.3164 -1.9091,-2.6859 -2.919,-4.009 l -5.0958,-6.9918 c -1.1151,-1.5045 -0.467,-1.8492 0.6872,-3.4747 l 10.241,-14.0761 c -0.8731,0.2113 -3.8865,1.2582 -4.9665,1.6093 l -12.5188,4.0917 c -2.0341,0.6619 -2.0639,0.0454 -3.7047,-2.2741 -0.4731,-0.6689 -0.9284,-1.2559 -1.3959,-1.9258 -0.9025,-1.2932 -1.8486,-2.5291 -2.7913,-3.8521 l -4.186,-5.7799 c -0.2355,-0.3181 -1.1978,-1.7478 -1.4147,-1.9026 l 0.0147,17.7995 c 0.003,1.5259 0.1435,2.2578 -1.2427,2.7231 -1.982,0.6651 -4.001,1.2953 -5.988,1.9286 -1.2323,0.3928 -11.6829,3.7165 -11.9347,3.8915 1.6308,0.4418 3.3911,1.1183 5.0324,1.6234 4.1436,1.2752 8.3866,2.7324 12.5562,4.0547 0.9599,0.3044 1.5822,0.559 1.5791,1.7532 z"
         style="fill:#fdfdfd;fill-rule:evenodd"
         id="path29" />
      <path
         d="m 265.0259,396.3108 1.3388,-0.1685 c 0.0242,-2.3006 -1.82,-3.6314 0.2118,-4.0425 0.1136,1.3274 0.5243,2.3323 0.6041,3.7845 l 1.4021,-0.3634 c -0.0209,-1.269 -0.3813,-2.2942 -0.4001,-3.6113 l -4.0012,-0.6216 c 0.2542,1.435 0.5232,2.8836 0.6964,4.3492 0.028,0.2368 0.0312,0.4744 0.1481,0.6736 z"
         style="fill:#e63c24;fill-rule:evenodd"
         id="path31" />
    </g>
  </g>
</svg>
