<!-- Generated by IcoMoon.io -->
<svg version="1.1" xmlns="http://www.w3.org/2000/svg" width="30" height="30" viewBox="0 0 30 30">
<title>shield</title>
<path fill="white" d="M28.5 16.5c-0.212 3.755-2.236 6.995-5.204 8.883l-0.046 0.027-8.25 4.59-8.25-4.59c-3.014-1.915-5.038-5.155-5.249-8.88l-0.001-0.030v-12c5.070 0 9.75-1.68 13.5-4.5 3.75 2.835 8.43 4.5 13.5 4.5v12zM15 18.12l4.38 3.060-1.545-5.115 4.26-3.225-5.34-0.12-1.755-5.040-1.755 5.040-5.34 0.12 4.245 3.21-1.545 5.1 4.395-3.015z"></path>
</svg>
