<!-- Generated by IcoMoon.io -->
<svg version="1.1" xmlns="http://www.w3.org/2000/svg" width="30" height="30" viewBox="0 0 30 30">
<title>user-group</title>
<path fill="white" d="M10.5 12c-3.314 0-6-2.686-6-6s2.686-6 6-6v0c3.314 0 6 2.686 6 6s-2.686 6-6 6v0zM10.5 13.5c3.225 0 6.3 0.6 9.15 1.635l-1.65 8.865h-1.875l-1.125 6h-9l-1.125-6h-1.875l-1.65-8.865c2.72-1.026 5.863-1.624 9.145-1.635h0.005zM22.965 13.755c1.98 0.27 3.885 0.72 5.7 1.38l-1.665 8.865h-1.875l-1.125 6h-5.94l0.555-3h1.875l2.475-13.245zM19.5 0c0.015-0 0.033-0 0.051-0 3.314 0 6 2.686 6 6s-2.686 6-6 6c-0.734 0-1.438-0.132-2.088-0.373l0.042 0.014c1.248-1.525 2.004-3.494 2.004-5.64s-0.756-4.115-2.016-5.656l0.013 0.016c0.645-0.21 1.29-0.36 1.995-0.36z"></path>
</svg>
