<?xml version="1.0" encoding="UTF-8" standalone="no"?>
<svg
   xmlns:dc="http://purl.org/dc/elements/1.1/"
   xmlns:cc="http://creativecommons.org/ns#"
   xmlns:rdf="http://www.w3.org/1999/02/22-rdf-syntax-ns#"
   xmlns:svg="http://www.w3.org/2000/svg"
   xmlns="http://www.w3.org/2000/svg"
   xmlns:sodipodi="http://sodipodi.sourceforge.net/DTD/sodipodi-0.dtd"
   xmlns:inkscape="http://www.inkscape.org/namespaces/inkscape"
   width="99.99308mm"
   height="12.414643mm"
   viewBox="0 0 99.993083 12.414643"
   version="1.1"
   id="svg219"
   inkscape:version="1.0.2-2 (e86c870879, 2021-01-15)"
   sodipodi:docname="goodwork_no_r.svg">
  <defs
     id="defs213" />
  <sodipodi:namedview
     id="base"
     pagecolor="#ffffff"
     bordercolor="#666666"
     borderopacity="1.0"
     inkscape:pageopacity="0.0"
     inkscape:pageshadow="2"
     inkscape:zoom="7.9195959"
     inkscape:cx="312.36839"
     inkscape:cy="17.525982"
     inkscape:document-units="mm"
     inkscape:current-layer="layer1"
     inkscape:document-rotation="0"
     showgrid="false"
     inkscape:window-width="1920"
     inkscape:window-height="1007"
     inkscape:window-x="-9"
     inkscape:window-y="-9"
     inkscape:window-maximized="1" />
  <metadata
     id="metadata216">
    <rdf:RDF>
      <cc:Work
         rdf:about="">
        <dc:format>image/svg+xml</dc:format>
        <dc:type
           rdf:resource="http://purl.org/dc/dcmitype/StillImage" />
        <dc:title></dc:title>
      </cc:Work>
    </rdf:RDF>
  </metadata>
  <g
     inkscape:label="Layer 1"
     inkscape:groupmode="layer"
     id="layer1"
     transform="translate(77.388925,39.141506)">
    <g
       id="Layer1002"
       transform="matrix(0,0.26458333,-0.26458333,0,86.432532,-121.5539)">
      <g
         id="Layer1003">
        <path
           d="m 327.4743,404.1006 0.003,0.3055 -15.1625,-4.417 -0.3088,-19.1849 7.3236,1.7353 c -3.1985,-1.7381 -5.3541,-4.7182 -6.4744,-8.6436 -1.1219,-3.9309 -0.9809,-7.5651 -0.9803,-11.5706 5e-4,-4.7697 -0.6271,-9.8901 0.4471,-14.5721 0.9244,-4.0274 3.0207,-6.4793 5.9537,-7.4322 -2.6888,-1.5878 -5.2482,-3.6232 -5.9784,-5.7826 -0.6463,-1.9108 -0.5212,-6.567 -0.5108,-8.6688 0.0148,-2.82 0.1152,-5.647 0.1152,-8.4631 0,-10.9682 -3.9479,-25.1842 12.3129,-25.2073 l 0.429,-5e-4 -12.6091,-3.3006 -0.1415,-19.603 3.1677,0.2892 c 1.4374,0.1311 3.0164,0.3851 4.5833,0.7785 -0.9689,-0.9519 -1.9235,-1.9175 -2.9012,-2.8633 -2.8314,-2.7399 -4.4472,-5.3272 -4.8701,-9.2631 -0.1937,-1.7984 -0.1427,-3.6598 -0.0856,-5.4654 0.0773,-2.4299 0.1755,-4.8504 0.1969,-7.2825 l 0.0373,-4.2474 3.9331,1.6036 c 1.8292,0.7456 4.8812,3.4695 6.2851,4.8526 1.1011,1.0846 2.3257,2.4195 3.3066,3.8898 l -6e-4,-2.1435 5.1736,6.7618 c 1.0973,1.4341 3.9353,4.1861 5.9789,5.8742 l 20.9368,-10.6703 0.3824,20.5467 -11.9075,6.3245 c 3.4882,1.0402 7.8262,1.9372 9.7612,2.5528 l 2.0162,0.6414 -0.0685,19.9404 -23.8149,-6.4974 c 0.5777,0.378 1.133,0.8147 1.6679,1.3101 0.942,0.8723 1.6936,1.8236 2.4677,2.7749 6.0129,-1.3199 12.2563,0.8131 17.826,3.0471 l 1.7775,0.7127 0.3139,19.0845 -3.4432,-0.6106 c -2.9259,-0.519 -5.9115,-1.5515 -8.7616,-2.4106 -1.0709,-0.3226 -2.5923,-0.7956 -4.0472,-1.1176 v 7.0811 l 16.1439,5.1752 0.034,18.7499 -3.2358,-0.3928 c -1.8648,-0.2266 -3.9545,-0.7741 -5.7836,-1.2207 -0.699,-0.1706 -1.3974,-0.3445 -2.0947,-0.5217 0.5914,0.2847 1.0759,0.5491 1.4209,0.7834 7.0466,4.7747 9.951,13.9527 10.1063,22.1234 0.1169,6.1551 -1.529,16.1818 -8.0495,18.8547 -1.8582,0.762 -4.9442,0.8328 -8.3171,0.4734 l 15.4444,4.1658 0.2573,1.8971 c 0.6803,5.0156 1.5411,12.4297 -1.4736,16.8961 -1.3694,2.0294 -3.3456,3.1524 -4.874,4.868 1.4187,2.7327 4.1448,5.2443 5.5148,8.1301 2.0063,4.2255 1.0901,11.7115 1.0681,16.444 l -0.0175,3.7482 -16.483,-4.4609 c 1.1587,0.4664 2.2883,1.0057 3.3801,1.6113 4.005,2.2225 8.0374,5.675 10.2358,9.7513 4.463,8.2783 2.8731,26.1537 2.8654,35.7667 l -0.003,3.757 -12.6996,-3.4152 c 1.253,0.5591 2.3168,1.1099 3.0745,1.6163 7.0416,4.705 9.9202,13.8265 10.058,21.9484 0.1047,6.1852 -1.5839,16.1033 -8.0479,18.8727 -1.9202,0.8224 -4.5645,0.9579 -7.3768,0.7061 2.3728,0.9085 4.383,1.8297 5.4555,2.5698 6.9221,4.7758 9.8046,14.1332 9.9505,22.2145 0.1169,6.4694 -1.7057,16.5279 -8.7923,18.9271 -1.4593,0.4937 -2.9275,0.6907 -4.3956,0.6901 1.6596,0.6984 3.2193,1.5049 4.5997,2.4628 6.5912,4.5728 8.1899,11.7856 8.1817,19.4187 -0.007,5.9345 0.3527,15.44 -4.7786,19.53 -6.2088,4.9475 -18.5952,0.4795 -25.0739,-1.8384 l -0.3813,-0.1366 0.002,0.4356 -3.8815,-1.3963 c -8.9119,-3.2067 -11.7659,-8.8087 -11.7659,-18.0871 v -22.5212 l 0.2628,-6.1567 8.1619,1.8429 c -5.4259,-2.7015 -8.5887,-7.6885 -8.5887,-14.3412 l 5e-4,-16.4709 c 6e-4,-9.5395 3.2473,-11.5228 11.7692,-12.1093 -11.3588,-3.5216 -11.784,-11.0285 -11.7747,-21.583 0.009,-10.1183 -2.4633,-19.1108 7.2501,-21.8304 -2.262,-1.3408 -4.5322,-2.8775 -6.1863,-4.3084 l -1.004,-0.8684 0.007,-1.3277 c 0.0395,-7.1969 -0.9612,-14.6358 -0.141,-21.7871 0.8838,-7.7 4.1503,-13.8496 12.3775,-15.2568 l 1.861,-0.3182 0.011,-0.0889 1.2563,-0.1278 0.2403,-0.0411 v 0.0164 l 0.7889,-0.0801 c 2.1435,-0.2183 4.298,-0.1602 6.4173,0.1438 l -7.2073,-1.9504 6e-4,0.0291 -15.5317,-4.1822 -0.1794,-20.1303 15.2798,3.8174 0.0231,1.0956 1.0632,-0.0861 c 0.8943,-0.0725 1.8484,-0.0127 2.8233,0.1393 -1.3305,-1.879 -2.4683,-3.8267 -3.0515,-6.1282 l -0.4581,-1.8071 4.7522,-3.7713 c -1.6398,-0.4565 -3.1798,-0.8811 -4.7901,-1.6042 z m -0.1712,-19.2585 0.3649,0.0982 c -0.1273,-0.0697 -0.2491,-0.1394 -0.3659,-0.209 z m 0.2552,142.4725 v 0.0603 l 0.8141,-0.0203 c 0.1405,-0.003 0.2913,-0.002 0.4515,0.004 l -1.1504,-0.5958 0.001,0.5865 z m 0.0647,24.6498 1.6223,0.4109 c 2.8287,0.7165 5.6448,1.6679 8.4604,2.4623 1.3282,0.3747 3.1464,0.8959 4.8537,1.2256 l 0.1426,-5.4396 c -2.093,-0.7758 -4.2859,-1.4435 -6.3893,-2.0442 -1.9021,-0.5432 -3.9238,-0.9799 -5.788,-1.6037 -1.1274,-0.3774 -2.1265,-0.8602 -2.9187,-1.6118 z m 0.01,-44.1415 1.6118,0.4126 c 3.4224,0.8767 9.0831,2.9379 13.3136,3.6972 l 0.1421,-5.4714 c -4.8768,-1.8703 -10.6028,-2.4546 -15.0807,-4.8197 z m 0.0164,-141.3445 0.727,-0.0318 c 4.8016,-0.2112 9.5258,2.4782 14.222,3.3669 l 0.0467,-5.5104 c -2.1726,-0.818 -4.6529,-1.4165 -6.7668,-1.9898 -2.5374,-0.688 -5.8769,-1.5389 -8.2481,-2.8792 z m -0.0696,-25.34 0.4921,-0.0109 c -0.22,-0.0911 -0.4312,-0.1844 -0.6315,-0.2798 l 10e-4,0.1717 0.1383,0.0384 z m -0.002,121.8825 1.0627,0.0571 c 2.8331,0.1525 5.9427,1.2662 8.6244,2.1769 1.3408,0.4554 3.3241,1.1801 5.026,1.5302 -0.2634,-2.4941 -1.4172,-4.7555 -3.3494,-6.5528 -1.3222,-1.2306 -2.702,-2.0283 -4.4664,-2.4178 -1.529,-0.338 -3.1266,-0.3237 -4.6249,-0.7884 -0.908,-0.2815 -1.6596,-0.7039 -2.273,-1.2492 z m 0.0888,132.3432 0.9678,0.2162 -0.9683,-0.3654 z m -0.581,-302.3249 0.0423,0.003 -0.0423,-0.0115 z"
           style="fill:#ffffff;fill-rule:evenodd"
           id="path34" />
      </g>
      <g
         id="Layer1004">
        <path
           d="m 337.5323,422.5447 c -2.2173,-0.9862 -6.256,-2.6131 -9.0692,-2.3847 l 0.063,13.8538 26.5577,7.188 c 0.0199,-4.3623 0.8274,-11.787 -0.7903,-15.1946 -1.5978,-3.3653 -4.9299,-5.9192 -6.2125,-9.7779 3.9453,-6.138 9.2217,-3.0577 6.7935,-20.9651 l -26.398,-7.1205 0.2099,13.3417 c 3.887,1.7451 6.9643,1.5365 9.0069,3.6306 l -6.8971,5.4729 c 1.2787,5.043 6.1924,8.5087 6.7361,11.9558 z"
           style="fill:#ba2c22;fill-rule:evenodd"
           id="path37" />
        <path
           d="m 337.1394,302.2798 c -2.2102,-2.4469 -4.0001,-5.9612 -8.7792,-6.2696 l 0.1282,42.14 c 2.4833,1.2936 22.7198,6.8383 26.6053,7.3098 l -0.0239,-13.391 -16.1477,-5.1766 v -12.416 c 3.9356,-0.1337 11.3636,3.065 16.195,3.9218 l -0.225,-13.673 c -4.9722,-1.9945 -11.7738,-4.5693 -17.7527,-2.4454 z"
           style="fill:#b82c23;fill-rule:evenodd"
           id="path39" />
        <path
           d="m 343.8668,469.8704 c -4.0729,-0.0531 -10.8764,-3.6714 -15.3814,-3.9144 l 0.0458,14.538 26.5326,7.1359 c 0.008,-9.5815 1.4628,-27.009 -2.5201,-34.3961 -3.2737,-6.0718 -13.0238,-12.922 -23.8875,-11.8168 -2.4625,19.8344 3.8378,8.8803 12.2484,16.7048 2.8225,2.6257 4.8662,6.6392 4.2015,11.6321 z"
           style="fill:#0f0c0d;fill-rule:evenodd"
           id="path41" />
        <path
           d="m 329.0701,612.3777 c 24.8365,8.8862 25.9808,2.2357 25.999,-14.9812 0.0195,-18.2639 -10.1935,-19.4396 -25.0169,-23.2642 l 0.2018,18.9781 c 3.3817,1.2752 6.5164,4.4313 9.7852,5.3653 -0.0454,-1.226 -0.2738,-3.7661 -0.1751,-4.8747 0.1401,-1.5734 0.1356,-0.9475 0.4374,-2.0375 0.0467,-0.1689 0.4603,-0.4932 0.2755,-0.612 -0.1853,-0.1191 0.1757,-0.4164 0.3055,-0.5991 2.6504,1.2181 2.7192,0.9906 2.8786,4.7844 0.2366,5.634 -0.0909,6.3751 -2.1322,6.6367 -2.3454,0.3008 -10.1862,-2.6132 -13.1019,-3.2643 0.005,4.5071 -0.5917,9.5734 0.5431,13.8685 z"
           style="fill:#0f0c0d;fill-rule:evenodd"
           id="path43" />
        <path
           d="m 336.3907,265.4718 c -2.4243,-1.6545 -7.0104,-6.2721 -7.9611,-7.5144 l 0.007,32.4543 26.5124,7.2326 0.0486,-14.0641 c -4.0298,-1.282 -12.5678,-2.6252 -15.4109,-5.099 l 15.5153,-8.2409 -0.2638,-14.1704 z"
           style="fill:#b82c23;fill-rule:evenodd"
           id="path45" />
        <path
           d="m 328.6129,382.1528 c 3.1194,1.9957 16.2441,5.3232 20.6402,3.5209 8.06,-3.3043 9.4944,-27.7418 -2.581,-35.9254 -2.3983,-1.6254 -15.315,-5.8129 -18.2067,-5.7469 l 0.1722,12.6752 c 3.4591,2.2332 12.2269,3.4698 16.9059,5.7284 l -0.0894,10.5702 c -5.8449,0.0367 -12.1889,-3.8584 -16.9513,-3.6489 z"
           style="fill:#b82c23;fill-rule:evenodd"
           id="path47" />
        <path
           d="m 345.3591,559.2611 c -4.1058,0.0348 -12.7832,-3.0686 -16.8217,-4.0911 -0.009,15.6719 -2.2741,13.0512 9.1924,16.147 3.3289,0.899 7.3464,1.9873 10.9112,0.7806 9.0405,-3.06 9.8096,-27.9795 -1.8705,-36.0378 -2.7382,-1.8892 -14.8699,-5.911 -18.325,-5.8244 0.5437,15.0841 -1.7427,12.6015 8.6587,15.5726 2.8064,0.8015 6.1894,1.8938 8.5329,2.8719 z"
           style="fill:#0f0c0d;fill-rule:evenodd"
           id="path49" />
        <path
           d="m 345.3591,515.1015 c -4.2174,0.0284 -12.6376,-2.9997 -16.8298,-4.0733 l 0.1458,13.0077 2.7606,1.4297 c 4.2874,1.6035 13.7046,4.0322 17.7579,2.2956 8.0851,-3.4636 9.5437,-27.7427 -2.4763,-35.7747 -2.9299,-1.9577 -13.8305,-5.6819 -18.2631,-5.9222 l 0.1842,12.8503 c 4.0803,2.2909 11.7777,3.1781 16.9944,5.6675 z"
           style="fill:#0f0c0d;fill-rule:evenodd"
           id="path51" />
        <path
           d="m 324.2181,295.0818 c -12.9275,0.0178 -9.4339,10.1731 -9.4339,22.3245 0,2.8653 -0.388,14.341 0.2432,16.2085 0.7682,2.274 6.2084,5.2667 9.5252,6.5724 z"
           style="fill:#b82d21;fill-rule:evenodd"
           id="path53" />
        <path
           d="m 315.0683,570.8018 -0.1133,2.6457 -2e-4,22.4597 c 0,8.8643 2.7786,12.8269 9.8599,15.375 l -0.0276,-4.8938 -0.0104,-33.3944 z"
           style="fill:#0e0c0d;fill-rule:evenodd"
           id="path55" />
        <path
           d="m 314.8527,476.2486 c 2.3541,2.0362 7.0049,4.8432 9.8438,6.2036 l -0.003,-40.4219 c -13.6223,2.3298 -9.7635,20.249 -9.8408,34.2183 z"
           style="fill:#0e0c0d;fill-rule:evenodd"
           id="path57" />
        <path
           d="m 324.7028,343.2523 c -12.2647,-3.397 -9.9441,10.7601 -9.9456,19.0735 -8e-4,4.8817 -1.0295,17.5488 10.0505,18.9405 z"
           style="fill:#b82c23;fill-rule:evenodd"
           id="path59" />
        <path
           d="m 324.7018,484.8256 c -12.9142,0.6216 -9.9045,7.4028 -9.9153,19.7454 -0.009,10.3007 0.3011,15.9977 9.9974,18.9029 z"
           style="fill:#0e0c0d;fill-rule:evenodd"
           id="path61" />
        <path
           d="m 314.7914,554.7309 c 2e-4,7.2229 4.2583,11.296 9.9908,12.9042 l -0.1021,-38.6586 c -7.7597,0.44 -9.8889,1.194 -9.8883,9.284 z"
           style="fill:#100c0e;fill-rule:evenodd"
           id="path63" />
        <path
           d="m 324.5284,256.7649 c 0.002,-4.2675 -8.2782,-10.6871 -9.6621,-11.2507 -0.1034,11.7885 -1.5318,14.6776 3.8804,19.9137 1.9908,1.9261 3.5899,3.6321 5.5578,5.3561 z"
           style="fill:#b82c23;fill-rule:evenodd"
           id="path65" />
        <path
           d="m 324.4358,275.4815 c -2.4222,-1.734 -6.4089,-2.7327 -9.6374,-3.0267 l 0.1029,14.2142 9.6659,2.5305 z"
           style="fill:#b82c23;fill-rule:evenodd"
           id="path67" />
        <path
           d="m 314.7797,416.1588 0.1263,14.2165 9.7064,2.6141 -0.3041,-14.4499 z"
           style="fill:#b82c23;fill-rule:evenodd"
           id="path69" />
        <path
           d="m 314.9471,384.4634 0.2159,13.353 9.3968,2.7382 -0.1229,-13.8421 z"
           style="fill:#b62d22;fill-rule:evenodd"
           id="path71" />
      </g>
    </g>
  </g>
</svg>
