<?xml version="1.0" encoding="UTF-8" standalone="no"?>
<svg
   xmlns:dc="http://purl.org/dc/elements/1.1/"
   xmlns:cc="http://creativecommons.org/ns#"
   xmlns:rdf="http://www.w3.org/1999/02/22-rdf-syntax-ns#"
   xmlns:svg="http://www.w3.org/2000/svg"
   xmlns="http://www.w3.org/2000/svg"
   xmlns:sodipodi="http://sodipodi.sourceforge.net/DTD/sodipodi-0.dtd"
   xmlns:inkscape="http://www.inkscape.org/namespaces/inkscape"
   width="99.99308mm"
   height="12.414643mm"
   viewBox="0 0 99.993083 12.414643"
   version="1.1"
   id="svg219"
   inkscape:version="1.0.2-2 (e86c870879, 2021-01-15)"
   sodipodi:docname="goodwork.svg">
  <defs
     id="defs213" />
  <sodipodi:namedview
     id="base"
     pagecolor="#ffffff"
     bordercolor="#666666"
     borderopacity="1.0"
     inkscape:pageopacity="0.0"
     inkscape:pageshadow="2"
     inkscape:zoom="7.9195959"
     inkscape:cx="269.88456"
     inkscape:cy="17.525982"
     inkscape:document-units="mm"
     inkscape:current-layer="layer1"
     inkscape:document-rotation="0"
     showgrid="false"
     inkscape:window-width="2560"
     inkscape:window-height="1017"
     inkscape:window-x="-8"
     inkscape:window-y="-8"
     inkscape:window-maximized="1"
     inkscape:lockguides="false" />
  <metadata
     id="metadata216">
    <rdf:RDF>
      <cc:Work
         rdf:about="">
        <dc:format>image/svg+xml</dc:format>
        <dc:type
           rdf:resource="http://purl.org/dc/dcmitype/StillImage" />
        <dc:title />
      </cc:Work>
    </rdf:RDF>
  </metadata>
  <g
     inkscape:label="Layer 1"
     inkscape:groupmode="layer"
     id="layer1"
     transform="translate(77.388925,39.141506)">
    <g
       id="Layer1002"
       transform="matrix(0,0.26458333,-0.26458333,0,86.432532,-121.5539)">
      <g
         id="Layer1003">
        <path
           d="m 327.4743,404.1006 0.003,0.3055 -15.1625,-4.417 -0.3088,-19.1849 7.3236,1.7353 c -3.1985,-1.7381 -5.3541,-4.7182 -6.4744,-8.6436 -1.1219,-3.9309 -0.9809,-7.5651 -0.9803,-11.5706 5e-4,-4.7697 -0.6271,-9.8901 0.4471,-14.5721 0.9244,-4.0274 3.0207,-6.4793 5.9537,-7.4322 -2.6888,-1.5878 -5.2482,-3.6232 -5.9784,-5.7826 -0.6463,-1.9108 -0.5212,-6.567 -0.5108,-8.6688 0.0148,-2.82 0.1152,-5.647 0.1152,-8.4631 0,-10.9682 -3.9479,-25.1842 12.3129,-25.2073 l 0.429,-5e-4 -12.6091,-3.3006 -0.1415,-19.603 3.1677,0.2892 c 1.4374,0.1311 3.0164,0.3851 4.5833,0.7785 -0.9689,-0.9519 -1.9235,-1.9175 -2.9012,-2.8633 -2.8314,-2.7399 -4.4472,-5.3272 -4.8701,-9.2631 -0.1937,-1.7984 -0.1427,-3.6598 -0.0856,-5.4654 0.0773,-2.4299 0.1755,-4.8504 0.1969,-7.2825 l 0.0373,-4.2474 3.9331,1.6036 c 1.8292,0.7456 4.8812,3.4695 6.2851,4.8526 1.1011,1.0846 2.3257,2.4195 3.3066,3.8898 l -6e-4,-2.1435 5.1736,6.7618 c 1.0973,1.4341 3.9353,4.1861 5.9789,5.8742 l 20.9368,-10.6703 0.3824,20.5467 -11.9075,6.3245 c 3.4882,1.0402 7.8262,1.9372 9.7612,2.5528 l 2.0162,0.6414 -0.0685,19.9404 -23.8149,-6.4974 c 0.5777,0.378 1.133,0.8147 1.6679,1.3101 0.942,0.8723 1.6936,1.8236 2.4677,2.7749 6.0129,-1.3199 12.2563,0.8131 17.826,3.0471 l 1.7775,0.7127 0.3139,19.0845 -3.4432,-0.6106 c -2.9259,-0.519 -5.9115,-1.5515 -8.7616,-2.4106 -1.0709,-0.3226 -2.5923,-0.7956 -4.0472,-1.1176 v 7.0811 l 16.1439,5.1752 0.034,18.7499 -3.2358,-0.3928 c -1.8648,-0.2266 -3.9545,-0.7741 -5.7836,-1.2207 -0.699,-0.1706 -1.3974,-0.3445 -2.0947,-0.5217 0.5914,0.2847 1.0759,0.5491 1.4209,0.7834 7.0466,4.7747 9.951,13.9527 10.1063,22.1234 0.1169,6.1551 -1.529,16.1818 -8.0495,18.8547 -1.8582,0.762 -4.9442,0.8328 -8.3171,0.4734 l 15.4444,4.1658 0.2573,1.8971 c 0.6803,5.0156 1.5411,12.4297 -1.4736,16.8961 -1.3694,2.0294 -3.3456,3.1524 -4.874,4.868 1.4187,2.7327 4.1448,5.2443 5.5148,8.1301 2.0063,4.2255 1.0901,11.7115 1.0681,16.444 l -0.0175,3.7482 -16.483,-4.4609 c 1.1587,0.4664 2.2883,1.0057 3.3801,1.6113 4.005,2.2225 8.0374,5.675 10.2358,9.7513 4.463,8.2783 2.8731,26.1537 2.8654,35.7667 l -0.003,3.757 -12.6996,-3.4152 c 1.253,0.5591 2.3168,1.1099 3.0745,1.6163 7.0416,4.705 9.9202,13.8265 10.058,21.9484 0.1047,6.1852 -1.5839,16.1033 -8.0479,18.8727 -1.9202,0.8224 -4.5645,0.9579 -7.3768,0.7061 2.3728,0.9085 4.383,1.8297 5.4555,2.5698 6.9221,4.7758 9.8046,14.1332 9.9505,22.2145 0.1169,6.4694 -1.7057,16.5279 -8.7923,18.9271 -1.4593,0.4937 -2.9275,0.6907 -4.3956,0.6901 1.6596,0.6984 3.2193,1.5049 4.5997,2.4628 6.5912,4.5728 8.1899,11.7856 8.1817,19.4187 -0.007,5.9345 0.3527,15.44 -4.7786,19.53 -6.2088,4.9475 -18.5952,0.4795 -25.0739,-1.8384 l -0.3813,-0.1366 0.002,0.4356 -3.8815,-1.3963 c -8.9119,-3.2067 -11.7659,-8.8087 -11.7659,-18.0871 v -22.5212 l 0.2628,-6.1567 8.1619,1.8429 c -5.4259,-2.7015 -8.5887,-7.6885 -8.5887,-14.3412 l 5e-4,-16.4709 c 6e-4,-9.5395 3.2473,-11.5228 11.7692,-12.1093 -11.3588,-3.5216 -11.784,-11.0285 -11.7747,-21.583 0.009,-10.1183 -2.4633,-19.1108 7.2501,-21.8304 -2.262,-1.3408 -4.5322,-2.8775 -6.1863,-4.3084 l -1.004,-0.8684 0.007,-1.3277 c 0.0395,-7.1969 -0.9612,-14.6358 -0.141,-21.7871 0.8838,-7.7 4.1503,-13.8496 12.3775,-15.2568 l 1.861,-0.3182 0.011,-0.0889 1.2563,-0.1278 0.2403,-0.0411 v 0.0164 l 0.7889,-0.0801 c 2.1435,-0.2183 4.298,-0.1602 6.4173,0.1438 l -7.2073,-1.9504 6e-4,0.0291 -15.5317,-4.1822 -0.1794,-20.1303 15.2798,3.8174 0.0231,1.0956 1.0632,-0.0861 c 0.8943,-0.0725 1.8484,-0.0127 2.8233,0.1393 -1.3305,-1.879 -2.4683,-3.8267 -3.0515,-6.1282 l -0.4581,-1.8071 4.7522,-3.7713 c -1.6398,-0.4565 -3.1798,-0.8811 -4.7901,-1.6042 z m -0.1712,-19.2585 0.3649,0.0982 c -0.1273,-0.0697 -0.2491,-0.1394 -0.3659,-0.209 z m 0.2552,142.4725 v 0.0603 l 0.8141,-0.0203 c 0.1405,-0.003 0.2913,-0.002 0.4515,0.004 l -1.1504,-0.5958 0.001,0.5865 z m 0.0647,24.6498 1.6223,0.4109 c 2.8287,0.7165 5.6448,1.6679 8.4604,2.4623 1.3282,0.3747 3.1464,0.8959 4.8537,1.2256 l 0.1426,-5.4396 c -2.093,-0.7758 -4.2859,-1.4435 -6.3893,-2.0442 -1.9021,-0.5432 -3.9238,-0.9799 -5.788,-1.6037 -1.1274,-0.3774 -2.1265,-0.8602 -2.9187,-1.6118 z m 0.01,-44.1415 1.6118,0.4126 c 3.4224,0.8767 9.0831,2.9379 13.3136,3.6972 l 0.1421,-5.4714 c -4.8768,-1.8703 -10.6028,-2.4546 -15.0807,-4.8197 z m 0.0164,-141.3445 0.727,-0.0318 c 4.8016,-0.2112 9.5258,2.4782 14.222,3.3669 l 0.0467,-5.5104 c -2.1726,-0.818 -4.6529,-1.4165 -6.7668,-1.9898 -2.5374,-0.688 -5.8769,-1.5389 -8.2481,-2.8792 z m -0.0696,-25.34 0.4921,-0.0109 c -0.22,-0.0911 -0.4312,-0.1844 -0.6315,-0.2798 l 10e-4,0.1717 0.1383,0.0384 z m -0.002,121.8825 1.0627,0.0571 c 2.8331,0.1525 5.9427,1.2662 8.6244,2.1769 1.3408,0.4554 3.3241,1.1801 5.026,1.5302 -0.2634,-2.4941 -1.4172,-4.7555 -3.3494,-6.5528 -1.3222,-1.2306 -2.702,-2.0283 -4.4664,-2.4178 -1.529,-0.338 -3.1266,-0.3237 -4.6249,-0.7884 -0.908,-0.2815 -1.6596,-0.7039 -2.273,-1.2492 z m 0.0888,132.3432 0.9678,0.2162 -0.9683,-0.3654 z m -0.581,-302.3249 0.0423,0.003 -0.0423,-0.0115 z"
           style="fill:#ffffff;fill-rule:evenodd"
           id="path34" />
      </g>
      <g
         id="Layer1004">
        <path
           d="m 337.5323,422.5447 c -2.2173,-0.9862 -6.256,-2.6131 -9.0692,-2.3847 l 0.063,13.8538 26.5577,7.188 c 0.0199,-4.3623 0.8274,-11.787 -0.7903,-15.1946 -1.5978,-3.3653 -4.9299,-5.9192 -6.2125,-9.7779 3.9453,-6.138 9.2217,-3.0577 6.7935,-20.9651 l -26.398,-7.1205 0.2099,13.3417 c 3.887,1.7451 6.9643,1.5365 9.0069,3.6306 l -6.8971,5.4729 c 1.2787,5.043 6.1924,8.5087 6.7361,11.9558 z"
           style="fill:#ba2c22;fill-rule:evenodd"
           id="path37" />
        <path
           d="m 337.1394,302.2798 c -2.2102,-2.4469 -4.0001,-5.9612 -8.7792,-6.2696 l 0.1282,42.14 c 2.4833,1.2936 22.7198,6.8383 26.6053,7.3098 l -0.0239,-13.391 -16.1477,-5.1766 v -12.416 c 3.9356,-0.1337 11.3636,3.065 16.195,3.9218 l -0.225,-13.673 c -4.9722,-1.9945 -11.7738,-4.5693 -17.7527,-2.4454 z"
           style="fill:#b82c23;fill-rule:evenodd"
           id="path39" />
        <path
           d="m 343.8668,469.8704 c -4.0729,-0.0531 -10.8764,-3.6714 -15.3814,-3.9144 l 0.0458,14.538 26.5326,7.1359 c 0.008,-9.5815 1.4628,-27.009 -2.5201,-34.3961 -3.2737,-6.0718 -13.0238,-12.922 -23.8875,-11.8168 -2.4625,19.8344 3.8378,8.8803 12.2484,16.7048 2.8225,2.6257 4.8662,6.6392 4.2015,11.6321 z"
           style="fill:#0f0c0d;fill-rule:evenodd"
           id="path41" />
        <path
           d="m 329.0701,612.3777 c 24.8365,8.8862 25.9808,2.2357 25.999,-14.9812 0.0195,-18.2639 -10.1935,-19.4396 -25.0169,-23.2642 l 0.2018,18.9781 c 3.3817,1.2752 6.5164,4.4313 9.7852,5.3653 -0.0454,-1.226 -0.2738,-3.7661 -0.1751,-4.8747 0.1401,-1.5734 0.1356,-0.9475 0.4374,-2.0375 0.0467,-0.1689 0.4603,-0.4932 0.2755,-0.612 -0.1853,-0.1191 0.1757,-0.4164 0.3055,-0.5991 2.6504,1.2181 2.7192,0.9906 2.8786,4.7844 0.2366,5.634 -0.0909,6.3751 -2.1322,6.6367 -2.3454,0.3008 -10.1862,-2.6132 -13.1019,-3.2643 0.005,4.5071 -0.5917,9.5734 0.5431,13.8685 z"
           style="fill:#0f0c0d;fill-rule:evenodd"
           id="path43" />
        <path
           d="m 336.3907,265.4718 c -2.4243,-1.6545 -7.0104,-6.2721 -7.9611,-7.5144 l 0.007,32.4543 26.5124,7.2326 0.0486,-14.0641 c -4.0298,-1.282 -12.5678,-2.6252 -15.4109,-5.099 l 15.5153,-8.2409 -0.2638,-14.1704 z"
           style="fill:#b82c23;fill-rule:evenodd"
           id="path45" />
        <path
           d="m 328.6129,382.1528 c 3.1194,1.9957 16.2441,5.3232 20.6402,3.5209 8.06,-3.3043 9.4944,-27.7418 -2.581,-35.9254 -2.3983,-1.6254 -15.315,-5.8129 -18.2067,-5.7469 l 0.1722,12.6752 c 3.4591,2.2332 12.2269,3.4698 16.9059,5.7284 l -0.0894,10.5702 c -5.8449,0.0367 -12.1889,-3.8584 -16.9513,-3.6489 z"
           style="fill:#b82c23;fill-rule:evenodd"
           id="path47" />
        <path
           d="m 345.3591,559.2611 c -4.1058,0.0348 -12.7832,-3.0686 -16.8217,-4.0911 -0.009,15.6719 -2.2741,13.0512 9.1924,16.147 3.3289,0.899 7.3464,1.9873 10.9112,0.7806 9.0405,-3.06 9.8096,-27.9795 -1.8705,-36.0378 -2.7382,-1.8892 -14.8699,-5.911 -18.325,-5.8244 0.5437,15.0841 -1.7427,12.6015 8.6587,15.5726 2.8064,0.8015 6.1894,1.8938 8.5329,2.8719 z"
           style="fill:#0f0c0d;fill-rule:evenodd"
           id="path49" />
        <path
           d="m 345.3591,515.1015 c -4.2174,0.0284 -12.6376,-2.9997 -16.8298,-4.0733 l 0.1458,13.0077 2.7606,1.4297 c 4.2874,1.6035 13.7046,4.0322 17.7579,2.2956 8.0851,-3.4636 9.5437,-27.7427 -2.4763,-35.7747 -2.9299,-1.9577 -13.8305,-5.6819 -18.2631,-5.9222 l 0.1842,12.8503 c 4.0803,2.2909 11.7777,3.1781 16.9944,5.6675 z"
           style="fill:#0f0c0d;fill-rule:evenodd"
           id="path51" />
        <path
           d="m 324.2181,295.0818 c -12.9275,0.0178 -9.4339,10.1731 -9.4339,22.3245 0,2.8653 -0.388,14.341 0.2432,16.2085 0.7682,2.274 6.2084,5.2667 9.5252,6.5724 z"
           style="fill:#b82d21;fill-rule:evenodd"
           id="path53" />
        <path
           d="m 315.0683,570.8018 -0.1133,2.6457 -2e-4,22.4597 c 0,8.8643 2.7786,12.8269 9.8599,15.375 l -0.0276,-4.8938 -0.0104,-33.3944 z"
           style="fill:#0e0c0d;fill-rule:evenodd"
           id="path55" />
        <path
           d="m 314.8527,476.2486 c 2.3541,2.0362 7.0049,4.8432 9.8438,6.2036 l -0.003,-40.4219 c -13.6223,2.3298 -9.7635,20.249 -9.8408,34.2183 z"
           style="fill:#0e0c0d;fill-rule:evenodd"
           id="path57" />
        <path
           d="m 324.7028,343.2523 c -12.2647,-3.397 -9.9441,10.7601 -9.9456,19.0735 -8e-4,4.8817 -1.0295,17.5488 10.0505,18.9405 z"
           style="fill:#b82c23;fill-rule:evenodd"
           id="path59" />
        <path
           d="m 324.7018,484.8256 c -12.9142,0.6216 -9.9045,7.4028 -9.9153,19.7454 -0.009,10.3007 0.3011,15.9977 9.9974,18.9029 z"
           style="fill:#0e0c0d;fill-rule:evenodd"
           id="path61" />
        <path
           d="m 314.7914,554.7309 c 2e-4,7.2229 4.2583,11.296 9.9908,12.9042 l -0.1021,-38.6586 c -7.7597,0.44 -9.8889,1.194 -9.8883,9.284 z"
           style="fill:#100c0e;fill-rule:evenodd"
           id="path63" />
        <path
           d="m 324.5284,256.7649 c 0.002,-4.2675 -8.2782,-10.6871 -9.6621,-11.2507 -0.1034,11.7885 -1.5318,14.6776 3.8804,19.9137 1.9908,1.9261 3.5899,3.6321 5.5578,5.3561 z"
           style="fill:#b82c23;fill-rule:evenodd"
           id="path65" />
        <path
           d="m 324.4358,275.4815 c -2.4222,-1.734 -6.4089,-2.7327 -9.6374,-3.0267 l 0.1029,14.2142 9.6659,2.5305 z"
           style="fill:#b82c23;fill-rule:evenodd"
           id="path67" />
        <path
           d="m 314.7797,416.1588 0.1263,14.2165 9.7064,2.6141 -0.3041,-14.4499 z"
           style="fill:#b82c23;fill-rule:evenodd"
           id="path69" />
        <path
           d="m 314.9471,384.4634 0.2159,13.353 9.3968,2.7382 -0.1229,-13.8421 z"
           style="fill:#b62d22;fill-rule:evenodd"
           id="path71" />
      </g>
      <path
         style="fill:#000000;fill-opacity:1;stroke-width:0.126269"
         d="M 16.444678,43.453461 C 8.9278595,43.130264 5.3454515,41.773559 3.8298216,38.676051 3.2747068,37.541558 3.0567818,36.570205 2.9728761,34.856405 2.7992037,31.309092 3.7572373,26.783093 6.2537122,19.356883 c 0.5447533,-1.620465 0.557855,-1.643509 1.0225525,-1.798512 1.1060442,-0.368928 3.4078863,-0.548404 7.0218393,-0.547497 1.979268,4.98e-4 4.185893,0.03944 4.903613,0.08655 l 1.304943,0.08565 -0.07929,0.422635 c -0.04361,0.232449 -0.563889,2.028442 -1.156179,3.991095 -1.570156,5.202974 -1.865787,6.463573 -1.873285,7.987878 -0.0098,2.001534 0.425907,2.492395 2.438048,2.746374 1.263971,0.159542 6.293882,-0.0351 7.079548,-0.273954 0.618237,-0.187955 1.035913,-0.641225 1.527796,-1.657998 0.469621,-0.970754 0.437399,-1.279571 -0.142226,-1.363164 -0.166528,-0.02402 -0.359598,-0.08752 -0.429046,-0.141129 -0.06945,-0.0536 -0.438785,-0.203131 -0.820749,-0.332282 -0.581843,-0.196734 -1.04263,-0.231353 -2.841054,-0.213447 -1.180616,0.01175 -2.416474,0.05842 -2.746352,0.103691 -0.747555,0.102602 -0.760428,0.01097 -0.176125,-1.253679 0.40385,-0.874079 0.726803,-1.409732 2.861873,-4.746716 0.510325,-0.797607 1.175339,-1.948234 1.477806,-2.556948 l 0.549944,-1.106753 h 2.752157 c 1.513687,0 5.739354,-0.03764 9.390373,-0.08364 l 6.638215,-0.08364 -0.857141,3.34665 c -1.590187,6.208783 -2.365568,8.722525 -3.447127,11.175405 -2.89573,6.567256 -7.586179,9.614758 -15.799047,10.265035 -1.44905,0.114732 -6.19717,0.140124 -8.410124,0.04497 z"
         id="path878"
         transform="rotate(-90,465.32382,153.8439)" />
      <path
         style="fill:#000000;fill-opacity:1;stroke-width:0.126269"
         d="m 8.2535872,12.588904 c 0.8417534,-2.215315 2.0176648,-4.084953 3.4467288,-5.4801202 2.16942,-2.1179625 4.914854,-3.1558825 9.209742,-3.481773 1.868074,-0.141747 27.139037,-0.1220036 27.282245,0.021315 0.05859,0.058641 -1.74866,8.4066332 -2.027111,9.3635372 -0.06087,0.209187 -1.079927,0.220971 -19.110289,0.220971 H 8.008913 Z"
         id="path880"
         transform="rotate(-90,465.32382,153.8439)" />
      <path
         style="fill:#000000;fill-opacity:1;stroke-width:0.126269"
         d="m 51.673749,13.097049 c 0,-0.309568 1.043548,-2.769258 1.520803,-3.5846005 1.810266,-3.0926609 4.555936,-5.0759223 8.077629,-5.834659 0.99056,-0.2134126 1.885,-0.2308087 11.867309,-0.2308087 9.911709,0 10.882102,0.01857 11.84712,0.2267178 2.521274,0.5438207 3.669895,1.5323104 4.3755,3.765499 0.303751,0.961353 0.696994,3.7720034 0.697283,4.9837394 l 1.52e-4,0.642198 -7.975771,0.08385 c -12.904904,0.13567 -30.410025,0.105774 -30.410025,-0.05194 z"
         id="path882"
         transform="rotate(-90,465.32382,153.8439)" />
      <path
         style="fill:#000000;fill-opacity:1;stroke-width:0.126269"
         d="M 58.933959,43.72884 C 55.356262,43.273297 52.325034,42.269188 50.223118,40.843331 48.549393,39.707942 47.612,38.517122 47.041761,36.801888 46.721638,35.838982 46.699325,35.627872 46.69934,33.562154 c 1.8e-5,-2.584338 -0.02598,-2.445189 1.745441,-9.341325 1.542339,-6.004311 1.799408,-6.527691 3.458336,-7.041001 0.797651,-0.246811 3.088604,-0.271449 8.945783,-0.09621 l 3.0511,0.09129 -0.168514,0.58591 c -0.09268,0.322251 -0.660691,2.25785 -1.262243,4.30133 -1.798001,6.107832 -2.588005,9.520269 -2.588005,11.178928 v 0.663982 l 2.30441,0.07965 c 1.267426,0.04381 3.672838,0.116534 5.34536,0.161611 l 3.04095,0.08196 0.350927,-0.932842 c 1.046289,-2.781265 2.044875,-5.96858 3.226509,-10.298456 0.94987,-3.480623 1.304176,-4.375431 1.96074,-4.951902 0.897858,-0.78833 1.428889,-0.845302 8.867247,-0.951335 l 3.946075,-0.05625 -0.06979,0.528349 c -0.589476,4.462368 -3.123352,12.500864 -5.24133,16.627655 -2.418227,4.711814 -8.418115,8.178983 -16.281218,9.408465 -1.845079,0.2885 -6.567439,0.35985 -8.397154,0.126876 z"
         id="path884"
         transform="rotate(-90,465.32382,153.8439)" />
      <path
         style="fill:#000000;fill-opacity:1;stroke-width:0.126269"
         d="M 103.19153,43.732495 C 96.581823,42.872818 92.119368,40.311169 91.193612,36.84515 c -0.262651,-0.983361 -0.361794,-2.879459 -0.237167,-4.535791 0.328569,-4.366791 1.855431,-10.366186 3.428056,-13.46963 l 0.773941,-1.527307 2.911689,-0.08233 c 4.254329,-0.120299 9.919619,-0.10229 9.919619,0.03153 0,0.06294 -0.31652,1.185161 -0.70338,2.493814 -1.52266,5.150796 -1.83059,6.240255 -2.31421,8.187745 -0.49194,1.980984 -0.82645,3.845454 -0.9427,5.254259 l -0.0585,0.708574 2.41975,0.0795 c 1.33086,0.04372 3.73226,0.11628 5.33644,0.161237 l 2.91669,0.08174 0.41579,-0.996079 c 0.70089,-1.679059 1.22704,-3.351446 2.40383,-7.640647 1.20399,-4.388365 1.80053,-6.238696 2.42275,-7.514842 0.36773,-0.754195 0.41236,-0.796356 0.90584,-0.855759 0.28548,-0.03437 3.15487,-0.0911 6.37643,-0.126085 l 5.85738,-0.06361 -0.0791,0.756915 c -0.19488,1.864446 -1.125,5.516232 -2.30731,9.058774 -1.45049,4.346078 -2.84347,7.45317 -4.06536,9.067904 -2.97649,3.93347 -8.16836,6.644357 -14.73844,7.69554 -1.74613,0.279373 -6.87706,0.351724 -8.64415,0.121892 z"
         id="path886"
         transform="rotate(-90,465.32382,153.8439)" />
      <path
         style="fill:#000000;fill-opacity:1;stroke-width:0.126269"
         d="m 95.93531,12.834662 c 0.169055,-0.769703 1.028371,-2.748443 1.649999,-3.7994407 0.39801,-0.672921 1.024039,-1.4524223 1.765723,-2.1985919 1.014698,-1.0208405 1.302778,-1.2297925 2.463228,-1.7866936 2.71131,-1.3011606 4.1798,-1.5023463 12.42581,-1.7023573 9.31589,-0.2259612 13.30575,-0.2064432 14.33154,0.070108 3.45214,0.9306939 5.04299,3.2562388 5.57009,8.1424955 0.0843,0.781518 0.11087,1.463371 0.059,1.515229 -0.0518,0.05186 -8.70333,0.112539 -19.22554,0.134845 l -19.131282,0.04056 z"
         id="path888"
         transform="rotate(-90,465.32382,153.8439)" />
      <path
         style="fill:#000000;fill-opacity:1;stroke-width:0.126269"
         d="m 137.82457,43.657104 c -2.02929,-0.06093 -4.25086,-0.126988 -4.93684,-0.146803 l -1.24722,-0.03602 3.52982,-13.131984 c 1.94141,-7.22259 3.53795,-13.138736 3.54788,-13.146991 0.01,-0.0083 3.2619,-0.05492 7.22659,-0.103697 l 7.20854,-0.08869 -0.11062,0.861312 c -0.18221,1.418659 -0.56668,2.806164 -1.93888,6.997047 -1.49846,4.576544 -1.8503,6.077108 -1.79728,7.665383 l 0.0363,1.08795 0.50508,0.111316 c 0.80485,0.177386 3.40288,0.0079 4.6055,-0.300489 4.57599,-1.173322 8.42262,-4.823507 9.59779,-9.107627 0.13884,-0.506172 0.36688,-1.744218 0.50674,-2.751214 0.32372,-2.330771 0.52322,-2.928662 1.20457,-3.610013 1.25807,-1.258071 4.16846,-1.525398 10.11915,-0.92947 0.84258,0.08438 1.60841,0.200711 1.70184,0.258514 0.25844,0.159887 0.21384,4.221988 -0.0643,5.859333 -0.94656,5.571573 -3.63222,10.839534 -7.4673,14.647212 -3.77102,3.744085 -7.40529,5.089725 -15.532,5.750962 -2.2349,0.181844 -12.17475,0.249701 -16.69534,0.113974 z"
         id="path890"
         transform="rotate(-90,465.32382,153.8439)" />
      <path
         style="fill:#000000;fill-opacity:1;stroke-width:0.126269"
         d="m 136.90537,13.022127 c 0,-0.166871 1.82533,-3.4183418 2.73659,-4.8747062 0.95628,-1.5283222 1.80917,-2.7656274 2.78312,-4.0375274 l 0.55597,-0.7260471 h 1.9771 c 1.08741,0 4.05299,-0.090876 6.59018,-0.2019461 5.24713,-0.2297031 10.84975,-0.1770864 13.0731,0.1227752 7.38959,0.9966288 11.07613,3.8159127 12.36306,9.4546496 l 0.0793,0.34724 h -20.07918 c -11.04356,0 -20.07919,-0.038 -20.07919,-0.08444 z"
         id="path892"
         transform="rotate(-90,465.32382,153.8439)" />
      <path
         style="fill:#d44128;fill-opacity:1;stroke-width:0.126269"
         d="m 218.81093,12.633056 c 0.0559,-0.190982 0.6559,-2.250747 1.33321,-4.5772542 0.67731,-2.3265076 1.24498,-4.2460722 1.26149,-4.2656993 0.0418,-0.049659 13.11292,-0.2787426 13.161,-0.2306584 0.0214,0.02145 -0.45304,2.1131486 -1.05442,4.64822 l -1.09343,4.6092209 -1.59186,0.08119 c -0.87553,0.04466 -3.96019,0.08142 -6.85479,0.08171 l -5.26292,5.12e-4 z"
         id="path871"
         transform="rotate(-90,465.32382,153.8439)" />
    </g>
    <path
       style="fill:#d44128;fill-opacity:1;stroke-width:0.126269"
       d="m 213.07717,43.741578 c -3.01387,-0.495717 -4.21751,-1.214775 -6.55902,-3.91835 -1.73236,-2.000243 -3.13611,-3.229987 -3.68826,-3.231077 -0.65328,-0.0013 -2.86669,1.335285 -5.52456,3.336037 -4.75943,3.582717 -5.51376,3.813228 -12.32303,3.765723 -2.18761,-0.01526 -4.63751,-0.07092 -5.44423,-0.123692 l -1.46675,-0.09594 3.55412,-13.131984 3.55411,-13.131983 2.5846,-0.0773 c 1.42152,-0.04251 4.53071,-0.08513 6.90931,-0.0947 l 4.32471,-0.0174 v 0.350552 c 0,1.597549 -0.71694,4.440923 -1.7765,7.045524 -0.35526,0.873295 -0.61545,1.618282 -0.5782,1.655528 0.15495,0.154954 1.57838,-0.430715 2.59223,-1.066573 0.59856,-0.375401 1.9122,-1.298247 2.9192,-2.050769 2.14994,-1.606638 3.84118,-2.633579 5.20045,-3.157768 0.53822,-0.20756 1.031,-0.377382 1.09506,-0.377382 0.0641,0 1.29608,1.491553 2.73783,3.314563 1.44175,1.82301 2.66927,3.368169 2.72782,3.433686 0.18148,0.203059 0.85687,-0.571142 1.3156,-1.508083 0.23802,-0.486136 0.72216,-1.900726 1.07587,-3.143533 0.35372,-1.242808 0.81109,-2.699529 1.0164,-3.237158 l 0.37327,-0.977508 3.5615,-0.07455 c 9.90153,-0.207262 9.7028,-0.207739 9.63138,0.02313 -0.0361,0.116759 -1.62689,6.002389 -3.53504,13.079177 -1.90816,7.076789 -3.5148,12.908331 -3.57032,12.958981 -0.0555,0.05065 -0.95326,0.190137 -1.99498,0.309972 -2.49094,0.286543 -7.35425,0.366304 -8.71257,0.142889 z"
       id="path860"
       transform="matrix(0.26458333,0,0,0.26458333,-77.388925,-39.141506)" />
    <path
       style="fill:#d44128;fill-opacity:1;stroke-width:0.126269"
       d="m 186.27492,12.964861 c 0.034,-0.09568 0.62231,-2.25335 1.30746,-4.7948146 l 1.24573,-4.6208455 3.2857,-0.082419 c 5.68293,-0.1425515 10.83434,-0.1067208 10.76853,0.074901 -0.0315,0.08681 -0.56106,2.1841178 -1.17689,4.660684 l -1.11969,4.5028471 -1.0779,0.07172 c -0.59284,0.03944 -3.18028,0.102441 -5.74986,0.139997 -2.56957,0.03756 -5.31834,0.102848 -6.10838,0.145094 -1.18926,0.06359 -1.4258,0.04688 -1.3747,-0.09716 z"
       id="path862"
       transform="matrix(0.26458333,0,0,0.26458333,-77.388925,-39.141506)" />
    <path
       style="fill:#d44128;fill-opacity:1;stroke-width:0.126269"
       d="m 245.8353,43.830812 c -5.96847,-0.607601 -10.73246,-2.873193 -12.10822,-5.758253 -0.56162,-1.17775 -0.69118,-2.19398 -0.60645,-4.756739 0.15316,-4.632151 1.69,-11.37833 3.45993,-15.187798 l 0.45361,-0.976323 6.35777,-0.03383 6.35776,-0.03383 -3e-5,0.712099 c -6e-5,1.415461 -0.389,3.010225 -1.9448,7.974152 -1.10783,3.534664 -1.69747,6.311977 -1.71484,8.077324 -0.002,0.20933 0.31328,0.220402 5.39463,0.189404 l 5.39683,-0.03292 0.46485,-1.136951 c 0.55595,-1.359766 1.08535,-3.081732 2.27081,-7.386211 1.06947,-3.883289 1.7304,-5.896752 2.35464,-7.173215 0.39125,-0.800024 0.52995,-0.971427 0.8467,-1.046303 0.20835,-0.04925 3.06816,-0.117863 6.35515,-0.152474 l 5.97633,-0.06293 -0.0842,0.650361 c -0.31602,2.442375 -2.00384,8.318999 -3.68642,12.835325 -1.53785,4.127822 -2.11527,5.103783 -4.22429,7.139852 -3.41927,3.301005 -8.59402,5.459495 -14.65414,6.112539 -1.12501,0.121232 -5.62399,0.152769 -6.66567,0.04673 z"
       id="path864"
       transform="matrix(0.26458333,0,0,0.26458333,-77.388925,-39.141506)" />
    <path
       style="fill:#d44128;fill-opacity:1;stroke-width:0.126269"
       d="m 238.0075,13.081095 c 0.003,-0.56873 0.59844,-2.484695 1.0711,-3.4469298 1.72003,-3.5016003 5.25389,-5.5076497 10.79731,-6.1292672 1.26729,-0.1421088 10.56821,-0.3222001 15.15263,-0.2933962 4.01416,0.025221 6.72156,0.5145363 8.45969,1.5289427 2.0263,1.1825869 3.0819,3.3161124 2.85127,5.7628615 -0.0958,1.016622 -0.37948,2.446377 -0.51155,2.578506 -0.0483,0.04834 -8.57788,0.104836 -18.95459,0.125552 -15.40318,0.03075 -18.86658,0.0076 -18.86586,-0.126269 z"
       id="path866"
       transform="matrix(0.26458333,0,0,0.26458333,-77.388925,-39.141506)" />
    <path
       style="fill:#d44128;fill-opacity:1;stroke-width:0.126269"
       d="m 279.17034,12.832619 c 0,-0.359345 2.08691,-4.3510553 2.95776,-5.6573988 1.04426,-1.5664883 2.41612,-3.049417 3.14941,-3.404399 0.9489,-0.4593512 3.11295,-0.5528113 10.8782,-0.4698025 3.95054,0.04223 8.15933,0.022268 9.53332,-0.045216 8.75475,-0.4299968 10.21049,-0.4083905 12.555,0.1863426 3.62995,0.9208126 5.44145,3.4301841 5.70836,7.9074937 l 0.0797,1.336666 -11.91897,0.08422 c -6.55543,0.04632 -16.64932,0.121731 -22.43086,0.167581 -9.28314,0.07362 -10.5119,0.06129 -10.5119,-0.105485 z"
       id="path868"
       transform="matrix(0.26458333,0,0,0.26458333,-77.388925,-39.141506)" />
    <path
       style="fill:#d44128;fill-opacity:1;stroke-width:0.126269"
       d="m 273.95461,42.558825 c 0.96158,-5.127985 5.57674,-21.845523 6.88076,-24.92427 l 0.24817,-0.585906 20.98265,-0.0525 c 11.54046,-0.02887 21.00289,-0.03855 21.02763,-0.0215 0.13555,0.0934 -0.41622,2.116324 -0.79452,2.912925 -0.77576,1.63353 -1.58563,2.520315 -4.46613,4.890296 -0.76587,0.630133 -1.02694,0.917987 -0.96779,1.067089 0.26811,0.675935 0.58681,2.275382 0.67441,3.384706 0.25983,3.290255 -0.43998,6.946018 -2.26325,11.823209 -0.42295,1.131363 -0.80753,2.117668 -0.85463,2.191787 -0.0577,0.0908 -2.27918,0.165131 -6.80947,0.227848 -5.63447,0.078 -6.72377,0.06523 -6.72348,-0.07885 6.3e-4,-0.346281 0.78401,-3.257839 1.57317,-5.84734 1.57365,-5.16365 2.09442,-7.277415 2.2804,-9.255907 l 0.0861,-0.915451 h -6.30289 -6.30289 l -2.58033,8.078676 -2.58033,8.078675 -6.64552,0.0025 -6.64552,0.0025 z"
       id="path870"
       transform="matrix(0.26458333,0,0,0.26458333,-77.388925,-39.141506)" />
    <path
       style="fill:#d44128;fill-opacity:1;stroke-width:0.126269"
       d="m 344.82989,35.762685 -4.10375,-7.76551 -0.34684,0.409705 c -1.03681,1.224696 -2.03417,4.086647 -3.63229,10.422923 -0.62376,2.473073 -1.15368,4.516071 -1.1776,4.539996 -0.0239,0.02392 -3.16986,0.02881 -6.99096,0.01085 l -6.94746,-0.03264 3.51028,-12.870725 c 1.93065,-7.078898 3.54334,-13.002496 3.58376,-13.16355 l 0.0735,-0.292826 h 16.09312 16.09312 l -1.35361,1.244531 c -2.00179,1.840476 -5.96244,6.243986 -5.96244,6.629136 0,0.06314 2.08023,4.201591 4.62274,9.196552 2.5425,4.99496 4.59646,9.108019 4.56434,9.140131 -0.0606,0.06058 -10.2639,0.302832 -12.59634,0.299076 l -1.32583,-0.0021 -4.10374,-7.765512 z"
       id="path872"
       transform="matrix(0.26458333,0,0,0.26458333,-77.388925,-39.141506)" />
    <path
       style="fill:#d44128;fill-opacity:1;stroke-width:0.126269"
       d="m 330.06262,12.948728 c 0.003,-0.01736 0.55962,-2.133947 1.23599,-4.7035226 l 1.22978,-4.6719555 2.58365,-0.077299 c 1.421,-0.042514 4.58659,-0.08513 7.03463,-0.094702 l 4.45099,-0.017403 -5.1e-4,0.2841054 c -10e-4,0.5961403 -0.40105,2.7420708 -0.77078,4.135312 -0.44175,1.6645776 -1.0809,3.2836227 -1.69952,4.3050887 l -0.42782,0.70642 -1.61271,0.08225 c -1.49985,0.07649 -12.0375,0.121809 -12.0237,0.05171 z"
       id="path874"
       transform="matrix(0.26458333,0,0,0.26458333,-77.388925,-39.141506)" />
    <path
       style="fill:#d44128;fill-opacity:1;stroke-width:0.126269"
       d="m 353.39366,12.860894 c -2.54724,-0.04013 -4.67152,-0.113139 -4.72063,-0.16225 -0.0491,-0.04911 1.5236,-1.702463 3.49492,-3.6741152 3.81591,-3.8165572 4.52965,-4.3873011 6.33748,-5.0677677 1.81234,-0.6821629 2.60921,-0.7386816 9.05186,-0.6420132 3.22877,0.048446 5.89246,0.1100618 5.91932,0.1369244 0.082,0.08201 -0.75748,1.3273314 -1.61411,2.3944208 -1.32223,1.6470732 -2.64898,3.0536181 -3.92537,4.1614519 -1.85195,1.607386 -3.06921,2.371677 -4.41077,2.769418 -0.7454,0.220995 -1.19534,0.224721 -10.1327,0.08393 z"
       id="path876"
       transform="matrix(0.26458333,0,0,0.26458333,-77.388925,-39.141506)" />
  </g>
</svg>
